<svg width="20" height="19" viewBox="0 0 20 19" fill="none" xmlns="http://www.w3.org/2000/svg">
<path fill-rule="evenodd" clip-rule="evenodd" d="M15.2796 8.86099H6.33117L9.07113 5.57274C9.33811 5.25296 9.29437 4.77707 8.9746 4.51084C8.65407 4.24386 8.17893 4.2876 7.9127 4.60738L4.14177 9.1325C4.11235 9.16794 4.09727 9.20942 4.0754 9.24864C4.0573 9.28032 4.03543 9.30747 4.02185 9.34216C3.98791 9.42889 3.96755 9.52015 3.96755 9.61216C3.96755 9.61291 3.9668 9.61442 3.9668 9.61518C3.9668 9.61593 3.96755 9.61744 3.96755 9.61819C3.96755 9.7102 3.98791 9.80146 4.02185 9.88819C4.03543 9.92288 4.0573 9.95003 4.0754 9.98171C4.09727 10.0209 4.11235 10.0624 4.14177 10.0979L7.9127 14.623C8.06203 14.8017 8.27622 14.8945 8.49192 14.8945C8.66236 14.8945 8.83356 14.8372 8.9746 14.7195C9.29437 14.4533 9.33811 13.9774 9.07113 13.6576L6.33117 10.3694H15.2796C15.6959 10.3694 16.0338 10.0315 16.0338 9.61518C16.0338 9.19886 15.6959 8.86099 15.2796 8.86099Z" fill="black"/>
</svg>
