<svg width="19" height="17" viewBox="0 0 19 17" fill="none" xmlns="http://www.w3.org/2000/svg">
<path fill-rule="evenodd" clip-rule="evenodd" d="M4.67216 10.3694H13.6206L10.8806 13.6577C10.6136 13.9775 10.6574 14.4534 10.9772 14.7196C11.2977 14.9866 11.7728 14.9428 12.0398 14.623L15.8107 10.0979C15.8401 10.0625 15.8545 10.021 15.8764 9.98178C15.8945 9.9501 15.9163 9.92295 15.9299 9.88826C15.9638 9.80153 15.9842 9.71027 15.9842 9.61826C15.9842 9.61751 15.985 9.616 15.985 9.61524C15.985 9.61449 15.9842 9.61298 15.9842 9.61223C15.9842 9.52022 15.9638 9.42896 15.9299 9.34223C15.9163 9.30754 15.8945 9.28039 15.8764 9.24871C15.8545 9.20949 15.8401 9.16801 15.8107 9.13256L12.0398 4.60744C11.8897 4.4287 11.6755 4.33594 11.4598 4.33594C11.2894 4.33594 11.1182 4.39326 10.9772 4.51091C10.6574 4.77714 10.6136 5.25303 10.8806 5.5728L13.6206 8.86106H4.67216C4.25584 8.86106 3.91797 9.19893 3.91797 9.61524C3.91797 10.0316 4.25584 10.3694 4.67216 10.3694Z" fill="black"/>
</svg>
