<svg width="35" height="36" viewBox="0 0 35 36" fill="none" xmlns="http://www.w3.org/2000/svg">
<path fill-rule="evenodd" clip-rule="evenodd" d="M34.8961 16.1875V9.32924C34.8961 8.87458 34.7149 8.43855 34.3923 8.11706C34.0698 7.79557 33.6323 7.61495 33.1761 7.61495H0.496094V29.9007C0.496094 30.3553 0.677307 30.7914 0.99987 31.1129C1.32243 31.4343 1.75992 31.615 2.21609 31.615H15.5V16.1875H34.8961ZM0.496094 4.18638H18.4082L14.9682 0.757812H2.21609C1.75992 0.757812 1.32243 0.938424 0.99987 1.25992C0.677307 1.58141 0.496094 2.01744 0.496094 2.4721V4.18638Z" fill="#1A278B"/>
<path d="M31.4357 24.553H26.4392V19.5731H18.9444V34.5128H31.4357V24.553ZM30.9186 23.308L27.6883 20.0885V23.308H30.9186ZM18.3199 18.3281H27.6883L32.6848 23.308V35.1353C32.6848 35.3004 32.619 35.4588 32.5019 35.5755C32.3848 35.6922 32.2259 35.7578 32.0603 35.7578H18.3199C18.1542 35.7578 17.9954 35.6922 17.8782 35.5755C17.7611 35.4588 17.6953 35.3004 17.6953 35.1353V18.9506C17.6953 18.7855 17.7611 18.6272 17.8782 18.5104C17.9954 18.3937 18.1542 18.3281 18.3199 18.3281ZM21.4427 27.043H28.9375V28.2879H21.4427V27.043ZM21.4427 23.308H24.5655V24.553H21.4427V23.308ZM21.4427 30.7779H28.9375V32.0229H21.4427V30.7779Z" fill="#1A278B"/>
</svg>
