<svg width="41" height="23" viewBox="0 0 41 23" fill="none" xmlns="http://www.w3.org/2000/svg">
<path fill-rule="evenodd" clip-rule="evenodd" d="M20.4965 17.7509C20.8621 17.7509 21.2196 17.8593 21.5236 18.0624C21.8277 18.2656 22.0646 18.5543 22.2045 18.8921C22.3444 19.2299 22.381 19.6016 22.3097 19.9602C22.2384 20.3189 22.0623 20.6483 21.8038 20.9069C21.5452 21.1654 21.2158 21.3414 20.8572 21.4128C20.4986 21.4841 20.1268 21.4476 19.789 21.3077C19.4512 21.1677 19.1625 20.9306 18.9594 20.6266C18.7562 20.3226 18.6478 19.9653 18.6478 19.5996C18.6478 19.1093 18.8425 18.6391 19.1893 18.2924C19.536 17.9457 20.0062 17.7509 20.4965 17.7509ZM3.0615 16.6877C2.27502 16.6877 1.52074 17 0.964619 17.5561C0.408494 18.1123 0.0960607 18.8666 0.0960607 19.6531C0.0960607 20.4396 0.408494 21.1939 0.964619 21.75C1.52074 22.3061 2.27502 22.6185 3.0615 22.6185H20.3976C21.1841 22.6185 21.9383 22.3061 22.4945 21.75C23.0506 21.1939 23.363 20.4396 23.363 19.6531C23.363 18.8666 23.0506 18.1123 22.4945 17.5561C21.9383 17 21.1841 16.6877 20.3976 16.6877H17.3661V16.1628H15.4639V14.8463H21.715C21.8084 13.8818 21.8175 12.9109 21.7421 11.9448L27.7581 3.43853L35.896 6.54464L30.5995 12.9508C29.1161 12.8806 27.6756 12.4312 26.4156 11.6454L26.448 9.836L25.9993 9.82333L25.802 11.2145C25.7805 11.3535 25.7614 11.491 25.746 11.6271V11.6345C25.4983 13.8557 26.0978 15.7586 27.7382 17.2721C28.5915 17.1473 29.4076 16.839 30.1302 16.3682C30.8528 15.8975 31.4647 15.2756 31.9237 14.5454L33.1693 14.8166L33.7578 14.1191L33.363 13.8054L33.8782 13.2354L34.0164 13.3603L37.1573 9.88172L37.0358 9.77148L38.5541 8.08978L39.0713 8.11571L40.0547 5.93288L36.2121 3.41182L36.0342 3.86821L35.1587 3.54383L35.2336 3.34571L30.8402 1.70854L30.7899 1.84689L28.7706 1.09441L28.8711 0.851365L28.5282 0.515698L27.5428 1.36694L27.48 1.98345C27.3998 1.90878 27.3134 1.84098 27.2218 1.78078L27.1679 1.25749L26.1809 0.40625L25.84 0.742709L25.9187 0.933501L25.3512 1.55575L25.1951 1.41464L22.049 4.88887L22.1977 5.02345L21.541 5.74941L21.46 5.68568L20.4467 6.59373C20.3461 6.34607 20.2403 6.09744 20.1268 5.84857H12.7254L12.7234 8.87689H8.34583V9.86391H0.618957C0.117408 11.4733 -0.0523707 13.1678 0.119959 14.8447H7.73743V16.1612H6.15093V16.6861L3.0615 16.6877ZM20.3976 17.3042H3.0615C2.43864 17.3042 1.84126 17.5517 1.40083 17.9922C0.960398 18.4326 0.712968 19.0298 0.712968 19.6527C0.712968 20.2755 0.960398 20.873 1.40083 21.3134C1.84126 21.7538 2.43864 22.0012 3.0615 22.0012H20.3976C21.0205 22.0012 21.6178 21.7538 22.0583 21.3134C22.4987 20.873 22.7461 20.2755 22.7461 19.6527C22.7461 19.0298 22.4987 18.4326 22.0583 17.9922C21.6178 17.5517 21.0205 17.3042 20.3976 17.3042ZM1.94154 11.6582H4.26048V12.0398H1.94154V11.6582ZM1.94154 10.9144H4.26048V11.2958H1.94154V10.9144ZM1.94154 12.4026H4.26048V12.784H1.94154V12.4026ZM1.94154 13.1464H4.26048V13.5277H1.94154V13.1464ZM33.0152 13.5297L32.5503 13.1561L36.8096 8.52539L37.8201 8.05455L37.9822 8.06266L36.7062 9.47599L36.5481 9.33408L33.4072 12.8135L33.5491 12.9399L33.0161 13.5297H33.0152ZM35.0014 3.96064L35.87 4.28483L35.703 4.71371L28.4216 1.93476L28.5975 1.50667L30.6327 2.26469L30.5516 2.47824L34.9434 4.11501L35.001 3.96183L35.0014 3.96064ZM26.1027 1.38871L26.3001 1.8651L22.2686 6.3396L21.8848 6.03105L22.5272 5.3229L22.6566 5.43967L25.8027 1.96682L25.6811 1.8554L26.1027 1.38871ZM20.4811 11.8844H16.5433L15.9904 10.9271H14.0164L14.0201 7.13641H19.3056C19.9968 8.62961 20.3958 10.2412 20.4811 11.8844ZM5.20365 19.3807C5.1284 19.3807 5.05627 19.4107 5.00306 19.4639C4.94985 19.5171 4.91994 19.5893 4.91994 19.6646C4.91994 19.7398 4.94985 19.8118 5.00306 19.865C5.05627 19.9183 5.1284 19.9482 5.20365 19.9482H5.25961C5.08199 20.0341 4.93878 20.1778 4.85339 20.3557C4.768 20.5335 4.7455 20.7349 4.78956 20.9273C4.83362 21.1196 4.94163 21.2914 5.09594 21.4143C5.25024 21.5373 5.44172 21.6041 5.63902 21.6041C5.83632 21.6041 6.0278 21.5373 6.1821 21.4143C6.33641 21.2914 6.44442 21.1196 6.48848 20.9273C6.53254 20.7349 6.51004 20.5335 6.42465 20.3557C6.33926 20.1778 6.196 20.0341 6.01838 19.9482H7.68795C7.50994 20.0339 7.36631 20.1776 7.28059 20.3557C7.19488 20.5337 7.17219 20.7356 7.21617 20.9283C7.26015 21.1209 7.3682 21.2929 7.52269 21.4161C7.67719 21.5393 7.86897 21.6063 8.06657 21.6063C8.26417 21.6063 8.4559 21.5393 8.6104 21.4161C8.76489 21.2929 8.87294 21.1209 8.91692 20.9283C8.9609 20.7356 8.93821 20.5337 8.8525 20.3557C8.76678 20.1776 8.62315 20.0339 8.44513 19.9482H10.1143C9.9367 20.0343 9.79353 20.1782 9.70824 20.3563C9.62295 20.5343 9.60057 20.7359 9.64476 20.9283C9.68895 21.1206 9.79711 21.2924 9.95153 21.4153C10.106 21.5383 10.2975 21.6053 10.4949 21.6053C10.6923 21.6053 10.8839 21.5383 11.0383 21.4153C11.1927 21.2924 11.3009 21.1206 11.3451 20.9283C11.3893 20.7359 11.3669 20.5343 11.2816 20.3563C11.1963 20.1782 11.0531 20.0343 10.8755 19.9482H12.5431C12.3654 20.0341 12.2222 20.1778 12.1368 20.3557C12.0514 20.5335 12.0289 20.7349 12.073 20.9273C12.1171 21.1196 12.2251 21.2914 12.3794 21.4143C12.5337 21.5373 12.7252 21.6041 12.9225 21.6041C13.1198 21.6041 13.3112 21.5373 13.4655 21.4143C13.6199 21.2914 13.7279 21.1196 13.7719 20.9273C13.816 20.7349 13.7935 20.5335 13.7081 20.3557C13.6227 20.1778 13.4794 20.0341 13.3018 19.9482H14.971C14.793 20.034 14.6495 20.1776 14.5638 20.3557C14.4781 20.5337 14.4554 20.7356 14.4994 20.9283C14.5434 21.1209 14.6515 21.2927 14.806 21.4159C14.9605 21.5391 15.1522 21.6061 15.3498 21.6061C15.5474 21.6061 15.7391 21.5391 15.8936 21.4159C16.0481 21.2927 16.1562 21.1209 16.2002 20.9283C16.2442 20.7356 16.2215 20.5337 16.1358 20.3557C16.0501 20.1776 15.9066 20.034 15.7286 19.9482H17.3978C17.2201 20.0343 17.0769 20.178 16.9915 20.3561C16.9062 20.5341 16.8838 20.7358 16.928 20.9283C16.9721 21.1207 17.0803 21.2925 17.2347 21.4155C17.3892 21.5385 17.5807 21.6055 17.7782 21.6055C17.9756 21.6055 18.1672 21.5385 18.3216 21.4155C18.476 21.2925 18.5841 21.1207 18.6283 20.9283C18.6725 20.7358 18.6501 20.5341 18.5647 20.3561C18.4794 20.178 18.3362 20.0343 18.1585 19.9482H18.3381C18.4134 19.9482 18.4855 19.9183 18.5387 19.865C18.592 19.8118 18.6218 19.7398 18.6218 19.6646C18.6218 19.5893 18.592 19.5171 18.5387 19.4639C18.4855 19.4107 18.4134 19.3807 18.3381 19.3807H18.0402C18.2388 19.3181 18.4085 19.1865 18.5185 19.0096C18.6285 18.8328 18.6715 18.6225 18.6399 18.4167C18.6082 18.2108 18.5039 18.0231 18.3458 17.8875C18.1878 17.7519 17.9864 17.6773 17.7782 17.6773C17.5699 17.6773 17.3685 17.7519 17.2104 17.8875C17.0524 18.0231 16.9481 18.2108 16.9164 18.4167C16.8848 18.6225 16.9278 18.8328 17.0378 19.0096C17.1478 19.1865 17.3175 19.3181 17.5161 19.3807H15.611C15.8096 19.3185 15.9794 19.1872 16.0895 19.0106C16.1997 18.8341 16.2429 18.624 16.2114 18.4183C16.18 18.2126 16.0759 18.0248 15.918 17.8892C15.7601 17.7537 15.5589 17.6792 15.3508 17.6792C15.1427 17.6792 14.9415 17.7537 14.7836 17.8892C14.6257 18.0248 14.5216 18.2126 14.4902 18.4183C14.4587 18.624 14.5019 18.8341 14.6121 19.0106C14.7222 19.1872 14.892 19.3185 15.0906 19.3807H13.1855C13.3842 19.3184 13.554 19.187 13.6641 19.0102C13.7742 18.8335 13.8174 18.6231 13.7859 18.4173C13.7543 18.2114 13.6501 18.0237 13.4921 17.8881C13.3341 17.7524 13.1327 17.6779 12.9245 17.6779C12.7162 17.6779 12.5149 17.7524 12.3569 17.8881C12.1988 18.0237 12.0946 18.2114 12.0631 18.4173C12.0315 18.6231 12.0747 18.8335 12.1848 19.0102C12.295 19.187 12.4648 19.3184 12.6634 19.3807H10.7584C10.9571 19.3181 11.1268 19.1864 11.2369 19.0094C11.3469 18.8325 11.39 18.622 11.3583 18.4161C11.3266 18.2102 11.2222 18.0223 11.0641 17.8867C10.9059 17.751 10.7044 17.6765 10.4961 17.6765C10.2877 17.6765 10.0863 17.751 9.92817 17.8867C9.77004 18.0223 9.66566 18.2102 9.63397 18.4161C9.60228 18.622 9.64536 18.8325 9.75539 19.0094C9.86543 19.1864 10.0351 19.3181 10.2339 19.3807H8.32881C8.52735 19.3183 8.69696 19.1869 8.80698 19.0102C8.91699 18.8336 8.96012 18.6234 8.92855 18.4177C8.89697 18.212 8.79277 18.0244 8.63484 17.8888C8.47691 17.7533 8.27568 17.6787 8.06756 17.6787C7.85944 17.6787 7.65821 17.7533 7.50028 17.8888C7.34235 18.0244 7.23814 18.212 7.20657 18.4177C7.175 18.6234 7.21813 18.8336 7.32814 19.0102C7.43815 19.1869 7.60777 19.3183 7.80631 19.3807H5.90126C6.09956 19.3182 6.26892 19.1866 6.37868 19.01C6.48845 18.8334 6.53137 18.6234 6.49971 18.4179C6.46805 18.2124 6.36388 18.025 6.20605 17.8896C6.04822 17.7543 5.84716 17.6798 5.63922 17.6798C5.43128 17.6798 5.23022 17.7543 5.07238 17.8896C4.91455 18.025 4.81039 18.2124 4.77872 18.4179C4.74706 18.6234 4.78998 18.8334 4.89975 19.01C5.00952 19.1866 5.17888 19.3182 5.37718 19.3807H5.20365ZM5.63818 18.1915C5.70891 18.1911 5.77818 18.2118 5.83713 18.2508C5.89609 18.2899 5.94209 18.3457 5.96934 18.4109C5.9966 18.4762 6.00383 18.5482 5.99017 18.6176C5.97651 18.687 5.94256 18.7508 5.8926 18.8008C5.84264 18.8509 5.77894 18.885 5.70958 18.8988C5.64021 18.9126 5.56828 18.9055 5.50295 18.8784C5.43762 18.8513 5.38185 18.8055 5.34264 18.7466C5.30343 18.6877 5.28256 18.6184 5.28272 18.5477C5.28283 18.4534 5.3203 18.3629 5.38692 18.2962C5.45354 18.2294 5.54386 18.1918 5.63818 18.1915ZM17.7784 18.1915C17.849 18.1915 17.918 18.2125 17.9767 18.2518C18.0354 18.2911 18.0811 18.347 18.108 18.4123C18.135 18.4776 18.142 18.5495 18.1281 18.6188C18.1142 18.688 18.08 18.7516 18.03 18.8014C17.98 18.8513 17.9163 18.8854 17.847 18.899C17.7777 18.9127 17.7059 18.9054 17.6406 18.8782C17.5754 18.8511 17.5197 18.8052 17.4806 18.7464C17.4415 18.6876 17.4207 18.6184 17.4209 18.5477C17.4209 18.5008 17.4302 18.4544 17.4482 18.4111C17.4662 18.3679 17.4926 18.3287 17.5258 18.2956C17.559 18.2625 17.5983 18.2362 17.6417 18.2184C17.685 18.2005 17.7315 18.1914 17.7784 18.1915ZM15.35 18.1915C15.4207 18.1915 15.4897 18.2123 15.5485 18.2516C15.6072 18.2909 15.653 18.3468 15.68 18.4121C15.707 18.4774 15.714 18.5493 15.7002 18.6186C15.6863 18.6879 15.6522 18.7515 15.6022 18.8014C15.5522 18.8513 15.4885 18.8851 15.4192 18.8988C15.3499 18.9125 15.278 18.9054 15.2128 18.8782C15.1475 18.8511 15.0918 18.8052 15.0527 18.7464C15.0135 18.6876 14.9927 18.6184 14.9929 18.5477C14.9929 18.5009 15.0022 18.4546 15.0202 18.4113C15.0382 18.3681 15.0645 18.3286 15.0977 18.2956C15.1308 18.2625 15.1702 18.2362 15.2134 18.2184C15.2567 18.2005 15.3032 18.1914 15.35 18.1915ZM12.9216 18.1915C12.9923 18.1911 13.0616 18.2118 13.1206 18.2508C13.1795 18.2899 13.2255 18.3457 13.2528 18.4109C13.28 18.4762 13.2873 18.5482 13.2736 18.6176C13.26 18.687 13.226 18.7508 13.176 18.8008C13.1261 18.8509 13.0624 18.885 12.993 18.8988C12.9236 18.9126 12.8517 18.9055 12.7864 18.8784C12.7211 18.8513 12.6653 18.8055 12.6261 18.7466C12.5869 18.6877 12.566 18.6184 12.5662 18.5477C12.5667 18.4535 12.6043 18.3634 12.6708 18.2967C12.7373 18.2301 12.8274 18.1922 12.9216 18.1915ZM10.4949 18.1915C10.5656 18.1915 10.6346 18.2123 10.6934 18.2516C10.7521 18.2909 10.7979 18.3468 10.8249 18.4121C10.8519 18.4774 10.8589 18.5493 10.8451 18.6186C10.8312 18.6879 10.7971 18.7515 10.7471 18.8014C10.6971 18.8513 10.6334 18.8851 10.5641 18.8988C10.4948 18.9125 10.4229 18.9054 10.3577 18.8782C10.2925 18.8511 10.2367 18.8052 10.1976 18.7464C10.1584 18.6876 10.1377 18.6184 10.1378 18.5477C10.1379 18.5009 10.1472 18.4546 10.1651 18.4113C10.1831 18.3681 10.2094 18.3286 10.2426 18.2956C10.2757 18.2625 10.3151 18.2362 10.3583 18.2184C10.4016 18.2005 10.4481 18.1914 10.4949 18.1915ZM8.06657 18.1915C8.13723 18.1915 8.20629 18.2123 8.26503 18.2516C8.32377 18.2909 8.36954 18.3468 8.39655 18.4121C8.42355 18.4774 8.43058 18.5493 8.41673 18.6186C8.40289 18.6879 8.36879 18.7515 8.31876 18.8014C8.26874 18.8513 8.20506 18.8851 8.13574 18.8988C8.06642 18.9125 7.99455 18.9054 7.92931 18.8782C7.86408 18.8511 7.80839 18.8052 7.76925 18.7464C7.73011 18.6876 7.70927 18.6184 7.70943 18.5477C7.70948 18.5009 7.71877 18.4546 7.73674 18.4113C7.75471 18.3681 7.78107 18.3286 7.81422 18.2956C7.84738 18.2625 7.88671 18.2362 7.93001 18.2184C7.9733 18.2005 8.01973 18.1914 8.06657 18.1915ZM5.63818 20.3743C5.70887 20.374 5.7781 20.3946 5.83704 20.4337C5.89597 20.4727 5.94197 20.5284 5.96924 20.5936C5.99652 20.6588 6.00387 20.7306 5.99027 20.8C5.97668 20.8694 5.94277 20.9332 5.8929 20.9833C5.84302 21.0334 5.77939 21.0675 5.71007 21.0814C5.64076 21.0954 5.56889 21.0884 5.50355 21.0615C5.4382 21.0345 5.38235 20.9886 5.34303 20.9298C5.30372 20.8711 5.28272 20.802 5.28272 20.7313C5.28261 20.6369 5.31998 20.5461 5.38663 20.4792C5.45327 20.4122 5.54372 20.3746 5.63818 20.3743ZM17.7784 20.3743C17.849 20.3744 17.9179 20.3954 17.9766 20.4346C18.0353 20.4739 18.081 20.5297 18.108 20.595C18.1349 20.6602 18.1419 20.7319 18.1281 20.8012C18.1143 20.8704 18.0803 20.934 18.0303 20.9839C17.9803 21.0338 17.9167 21.0679 17.8475 21.0816C17.7782 21.0954 17.7064 21.0883 17.6412 21.0613C17.576 21.0342 17.5202 20.9884 17.481 20.9296C17.4418 20.8709 17.4209 20.8019 17.4209 20.7313C17.4208 20.6844 17.43 20.6379 17.448 20.5946C17.4659 20.5512 17.4922 20.5118 17.5255 20.4786C17.5587 20.4454 17.5981 20.4191 17.6415 20.4012C17.6849 20.3833 17.7314 20.3742 17.7784 20.3743ZM15.35 20.3743C15.4206 20.3743 15.4896 20.3952 15.5484 20.4345C15.6071 20.4737 15.6529 20.5293 15.6799 20.5946C15.7069 20.6598 15.714 20.7317 15.7002 20.801C15.6864 20.8703 15.6524 20.9339 15.6025 20.9839C15.5526 21.0338 15.4889 21.0677 15.4197 21.0814C15.3504 21.0952 15.2786 21.0883 15.2133 21.0613C15.1481 21.0342 15.0923 20.9884 15.0531 20.9296C15.0138 20.8709 14.9929 20.802 14.9929 20.7313C14.9928 20.6844 15.0021 20.6379 15.02 20.5946C15.0379 20.5512 15.0642 20.5118 15.0974 20.4786C15.1305 20.4454 15.1699 20.4191 15.2132 20.4012C15.2566 20.3833 15.3031 20.3742 15.35 20.3743ZM12.9216 20.3743C12.9923 20.374 13.0615 20.3946 13.1205 20.4337C13.1794 20.4727 13.2254 20.5284 13.2527 20.5936C13.28 20.6588 13.2873 20.7306 13.2737 20.8C13.2601 20.8694 13.2262 20.9332 13.1763 20.9833C13.1265 21.0334 13.0628 21.0675 12.9935 21.0814C12.9242 21.0954 12.8523 21.0884 12.787 21.0615C12.7216 21.0345 12.6658 20.9886 12.6265 20.9298C12.5872 20.8711 12.5662 20.802 12.5662 20.7313C12.5665 20.637 12.604 20.5466 12.6705 20.4798C12.7371 20.4129 12.8273 20.375 12.9216 20.3743ZM10.4949 20.3743C10.5655 20.3743 10.6345 20.3952 10.6933 20.4345C10.752 20.4737 10.7978 20.5293 10.8248 20.5946C10.8519 20.6598 10.8589 20.7317 10.8451 20.801C10.8313 20.8703 10.7973 20.9339 10.7474 20.9839C10.6975 21.0338 10.6338 21.0677 10.5646 21.0814C10.4953 21.0952 10.4235 21.0883 10.3582 21.0613C10.293 21.0342 10.2372 20.9884 10.198 20.9296C10.1587 20.8709 10.1378 20.802 10.1378 20.7313C10.1378 20.6844 10.147 20.6379 10.1649 20.5946C10.1828 20.5512 10.2091 20.5118 10.2423 20.4786C10.2754 20.4454 10.3148 20.4191 10.3582 20.4012C10.4015 20.3833 10.448 20.3742 10.4949 20.3743ZM8.06657 20.3743C8.1372 20.3743 8.20621 20.3952 8.26493 20.4345C8.32366 20.4737 8.36942 20.5293 8.39645 20.5946C8.42348 20.6598 8.43056 20.7317 8.41678 20.801C8.403 20.8703 8.369 20.9339 8.31906 20.9839C8.26912 21.0338 8.20551 21.0677 8.13624 21.0814C8.06697 21.0952 7.99516 21.0883 7.92991 21.0613C7.86466 21.0342 7.80888 20.9884 7.76964 20.9296C7.73041 20.8709 7.70943 20.802 7.70943 20.7313C7.70937 20.6844 7.71862 20.6379 7.73654 20.5946C7.75447 20.5512 7.78076 20.5118 7.81393 20.4786C7.8471 20.4454 7.88646 20.4191 7.92981 20.4012C7.97316 20.3833 8.01966 20.3742 8.06657 20.3743ZM2.98001 17.7509C3.34574 17.7505 3.70335 17.8585 4.00764 18.0614C4.31193 18.2643 4.54923 18.5529 4.68946 18.8907C4.8297 19.2285 4.8666 19.6003 4.7955 19.9591C4.72439 20.3178 4.54849 20.6473 4.29002 20.9061C4.03155 21.1648 3.70215 21.3413 3.34348 21.4128C2.98481 21.4843 2.61296 21.4477 2.27503 21.3079C1.9371 21.168 1.64824 20.9309 1.44501 20.6268C1.24178 20.3228 1.13329 19.9654 1.13329 19.5996C1.1334 19.1097 1.32796 18.6398 1.6742 18.2932C2.02044 17.9466 2.49008 17.7515 2.98001 17.7509ZM2.98001 18.842C3.1297 18.8418 3.27609 18.8859 3.40068 18.9689C3.52527 19.0518 3.62245 19.1699 3.67994 19.3081C3.73743 19.4463 3.75268 19.5984 3.72368 19.7453C3.69468 19.8922 3.62276 20.0272 3.51705 20.1332C3.41135 20.2392 3.27661 20.3114 3.12983 20.3408C2.98305 20.3702 2.83085 20.3554 2.69248 20.2983C2.55412 20.2412 2.43582 20.1444 2.35251 20.02C2.26921 19.8956 2.22462 19.7493 2.22446 19.5996C2.2243 19.5003 2.24372 19.4017 2.28161 19.3099C2.3195 19.218 2.37512 19.1346 2.44528 19.0643C2.51545 18.9939 2.5988 18.9381 2.69055 18.9C2.7823 18.8619 2.88065 18.8421 2.98001 18.842ZM20.4957 18.842C20.346 18.8418 20.1996 18.8859 20.075 18.9689C19.9504 19.0518 19.8533 19.1699 19.7958 19.3081C19.7383 19.4463 19.7231 19.5984 19.7521 19.7453C19.7811 19.8922 19.8529 20.0272 19.9587 20.1332C20.0644 20.2392 20.1992 20.3114 20.3459 20.3408C20.4927 20.3702 20.6449 20.3554 20.7832 20.2983C20.9216 20.2412 21.0399 20.1444 21.1232 20.02C21.2066 19.8956 21.2511 19.7493 21.2512 19.5996C21.2515 19.3991 21.1721 19.2067 21.0306 19.0647C20.8891 18.9226 20.697 18.8425 20.4965 18.842H20.4957Z" fill="#171C8F"/>
</svg>
