<svg width="29" height="43" viewBox="0 0 29 43" fill="none" xmlns="http://www.w3.org/2000/svg">
<mask id="mask0_3878_28013" style="mask-type:luminance" maskUnits="userSpaceOnUse" x="0" y="0" width="29" height="43">
<path d="M3.25 4.625C3.25 4.12772 3.44754 3.65081 3.79918 3.29917C4.15081 2.94754 4.62772 2.75 5.125 2.75H23.875C24.3723 2.75 24.8492 2.94754 25.2008 3.29917C25.5525 3.65081 25.75 4.12772 25.75 4.625V27.125C25.75 27.6223 25.5525 28.0992 25.2008 28.4508C24.8492 28.8025 24.3723 29 23.875 29H5.125C4.62772 29 4.15081 28.8025 3.79918 28.4508C3.44754 28.0992 3.25 27.6223 3.25 27.125V4.625Z" fill="white" stroke="white" stroke-width="4" stroke-linejoin="round"/>
<path d="M8.875 25.25C9.91053 25.25 10.75 24.4105 10.75 23.375C10.75 22.3395 9.91053 21.5 8.875 21.5C7.83947 21.5 7 22.3395 7 23.375C7 24.4105 7.83947 25.25 8.875 25.25Z" fill="black"/>
<path d="M20.125 25.25C21.1605 25.25 22 24.4105 22 23.375C22 22.3395 21.1605 21.5 20.125 21.5C19.0895 21.5 18.25 22.3395 18.25 23.375C18.25 24.4105 19.0895 25.25 20.125 25.25Z" fill="black"/>
<path d="M3.25 17.75H25.75" stroke="black" stroke-width="4" stroke-linecap="round" stroke-linejoin="round"/>
<path d="M11.6875 34.625H17.3125M8.875 40.25H20.125" stroke="white" stroke-width="4" stroke-linecap="round" stroke-linejoin="round"/>
<path d="M7.9375 29L2.3125 40.25M21.0625 29L26.6875 40.25" stroke="white" stroke-width="4" stroke-linecap="round"/>
<path d="M25.75 13.0625V22.4375M3.25 13.0625V22.4375" stroke="white" stroke-width="4" stroke-linecap="round" stroke-linejoin="round"/>
</mask>
<g mask="url(#mask0_3878_28013)">
<path d="M-8 -1H37V44H-8V-1Z" fill="#1A278B"/>
</g>
</svg>
