<svg width="40" height="33" viewBox="0 0 40 33" fill="none" xmlns="http://www.w3.org/2000/svg">
<line x1="8.00391" y1="20.8906" x2="8.00391" y2="32.2519" stroke="#1A278B" stroke-width="1.5"/>
<line x1="3.76562" y1="31.5" x2="12.1137" y2="31.5" stroke="#1A278B" stroke-width="1.5"/>
<line x1="8.00391" y1="9.21094" x2="8.00391" y2="14.4679" stroke="#1A278B" stroke-width="1.5"/>
<line x1="8.00391" y1="0.984375" x2="8.00391" y2="2.97304" stroke="#1A278B" stroke-width="1.5"/>
<path fill-rule="evenodd" clip-rule="evenodd" d="M35.8427 10.6121H39.2227V2.96875H28.1994L35.8427 10.6121ZM26.8789 2.96875H20.5861L28.2295 10.6121H34.4285L26.832 3.01562L26.8789 2.96875ZM12.9728 2.96875H19.2656L19.2188 3.01562L26.8152 10.6121H20.6162L12.9728 2.96875ZM11.6523 2.96875H5.35953L13.0029 10.6121H19.202L11.6055 3.01562L11.6523 2.96875ZM3.99219 3.01562L11.5887 10.6121H0.0546875V2.96875H4.03906L3.99219 3.01562Z" fill="#1A278B"/>
<path fill-rule="evenodd" clip-rule="evenodd" d="M35.8427 22.1121H39.2227V14.4688H28.1994L35.8427 22.1121ZM26.8789 14.4688H20.5861L28.2295 22.1121H34.4285L26.832 14.5156L26.8789 14.4688ZM12.9728 14.4688H19.2656L19.2188 14.5156L26.8152 22.1121H20.6162L12.9728 14.4688ZM11.6523 14.4688H5.35953L13.0029 22.1121H19.202L11.6055 14.5156L11.6523 14.4688ZM3.99219 14.5156L11.5887 22.1121H0.0546875V14.4688H4.03906L3.99219 14.5156Z" fill="#1A278B"/>
<line x1="31.4727" y1="22.1094" x2="31.4727" y2="32.2515" stroke="#1A278B" stroke-width="1.5"/>
<line x1="27.2344" y1="31.5" x2="35.7813" y2="31.5" stroke="#1A278B" stroke-width="1.5"/>
<line x1="31.4727" y1="10.2656" x2="31.4727" y2="14.4678" stroke="#1A278B" stroke-width="1.5"/>
<line x1="31.4727" y1="0.984375" x2="31.4727" y2="2.97304" stroke="#1A278B" stroke-width="1.5"/>
</svg>
