<svg width="22" height="26" viewBox="0 0 22 26" fill="none" xmlns="http://www.w3.org/2000/svg">
<path d="M19.5376 18.1392V11.9241C18.94 12.0436 18.3424 12.1631 17.7447 12.1631H17.1471V19.3344H5.19494V10.9679C5.19494 7.6213 7.82442 4.99182 11.171 4.99182C11.2906 3.43803 12.0077 2.12329 12.9639 1.04759C12.6053 0.569503 11.8882 0.210938 11.171 0.210938C9.8563 0.210938 8.7806 1.28663 8.7806 2.60138V2.95994C5.19494 4.03564 2.8045 7.26273 2.8045 10.9679V18.1392L0.414062 20.5297V21.7249H21.928V20.5297L19.5376 18.1392ZM8.7806 22.9201C8.7806 24.2348 9.8563 25.3105 11.171 25.3105C12.4858 25.3105 13.5615 24.2348 13.5615 22.9201H8.7806ZM21.928 5.58942C21.928 7.86034 20.0157 9.77269 17.7447 9.77269C15.4738 9.77269 13.5615 7.86034 13.5615 5.58942C13.5615 3.31851 15.4738 1.40616 17.7447 1.40616C20.0157 1.40616 21.928 3.31851 21.928 5.58942Z" fill="#172B4D"/>
</svg>
