<svg xmlns="http://www.w3.org/2000/svg" version="1.1" xmlns:xlink="http://www.w3.org/1999/xlink" width="512" height="512" x="0" y="0" viewBox="0 0 24 24" style="enable-background:new 0 0 512 512" xml:space="preserve" class=""><g><path d="M12 22C6.486 22 2 17.514 2 12S6.486 2 12 2s10 4.486 10 10-4.486 10-10 10zm0-18c-4.411 0-8 3.589-8 8s3.589 8 8 8 8-3.589 8-8-3.589-8-8-8z" fill="#9ea2a8" opacity="1" data-original="#000000" class=""></path><path d="M12 16.75a1 1 0 0 1-1-1v-4.282a1 1 0 0 1 2 0v4.282a1 1 0 0 1-1 1zM12 9.25c-.26 0-.52-.11-.71-.29-.18-.19-.29-.45-.29-.71 0-.13.03-.26.08-.38s.12-.23.21-.33c.38-.37 1.04-.37 1.42 0 .18.19.29.45.29.71s-.11.52-.29.71c-.1.09-.21.16-.33.21-.12.06-.25.08-.38.08z" fill="#9ea2a8" opacity="1" data-original="#000000" class=""></path></g></svg>