<svg width="11" height="10" viewBox="0 0 11 10" fill="none" xmlns="http://www.w3.org/2000/svg">
<path d="M9.49967 5.95833H6.16634V9.29167C6.16634 9.46848 6.0961 9.63805 5.97108 9.76307C5.84605 9.88809 5.67649 9.95833 5.49967 9.95833C5.32286 9.95833 5.15329 9.88809 5.02827 9.76307C4.90325 9.63805 4.83301 9.46848 4.83301 9.29167V5.95833H1.49967C1.32286 5.95833 1.15329 5.88809 1.02827 5.76307C0.903246 5.63805 0.833008 5.46848 0.833008 5.29167C0.833008 5.11486 0.903246 4.94529 1.02827 4.82026C1.15329 4.69524 1.32286 4.625 1.49967 4.625H4.83301V1.29167C4.83301 1.11486 4.90325 0.945286 5.02827 0.820262C5.15329 0.695238 5.32286 0.625 5.49967 0.625C5.67649 0.625 5.84605 0.695238 5.97108 0.820262C6.0961 0.945286 6.16634 1.11486 6.16634 1.29167V4.625H9.49967C9.67649 4.625 9.84606 4.69524 9.97108 4.82026C10.0961 4.94529 10.1663 5.11486 10.1663 5.29167C10.1663 5.46848 10.0961 5.63805 9.97108 5.76307C9.84606 5.88809 9.67649 5.95833 9.49967 5.95833Z" fill="white"/>
</svg>
