<svg width="17" height="19" viewBox="0 0 17 19" fill="none" xmlns="http://www.w3.org/2000/svg">
<path d="M10.8776 4.82448H2.36927C1.80513 4.82448 1.2641 5.04858 0.865196 5.44749C0.46629 5.84639 0.242188 6.38743 0.242188 6.95156V11.2057C0.242188 11.7699 0.46629 12.3109 0.865196 12.7098C1.2641 13.1087 1.80513 13.3328 2.36927 13.3328H3.43281V17.587C3.43281 17.869 3.54486 18.1396 3.74432 18.339C3.94377 18.5385 4.21429 18.6505 4.49635 18.6505H6.62344C6.90551 18.6505 7.17602 18.5385 7.37547 18.339C7.57493 18.1396 7.68698 17.869 7.68698 17.587V13.3328H10.8776L16.1953 17.587V0.570312L10.8776 4.82448ZM14.0682 12.9074L11.9411 11.2057H2.36927V6.95156H11.9411L14.0682 5.2499V12.9074Z" fill="#171C8F"/>
</svg>
