<svg width="23" height="21" viewBox="0 0 23 21" fill="none" xmlns="http://www.w3.org/2000/svg">
<path d="M10.8776 6.82448H2.36927C1.80513 6.82448 1.2641 7.04858 0.865196 7.44749C0.46629 7.84639 0.242188 8.38743 0.242188 8.95156V13.2057C0.242188 13.7699 0.46629 14.3109 0.865196 14.7098C1.2641 15.1087 1.80513 15.3328 2.36927 15.3328H3.43281V19.587C3.43281 19.869 3.54486 20.1396 3.74432 20.339C3.94377 20.5385 4.21429 20.6505 4.49635 20.6505H6.62344C6.90551 20.6505 7.17602 20.5385 7.37547 20.339C7.57493 20.1396 7.68698 19.869 7.68698 19.587V15.3328H10.8776L16.1953 19.587V2.57031L10.8776 6.82448ZM14.0682 14.9074L11.9411 13.2057H2.36927V8.95156H11.9411L14.0682 7.2499V14.9074Z" fill="#171C8F"/>
<circle cx="17.7188" cy="5.97656" r="4.5" fill="#FF0000" stroke="#F5F5F5"/>
</svg>
