<svg width="33" height="25" viewBox="0 0 33 25" fill="none" xmlns="http://www.w3.org/2000/svg">
<path d="M22.2913 12.3072H22.2492C21.9715 12.291 21.7052 12.1911 21.4853 12.0208C21.2654 11.8504 21.1022 11.6175 21.0172 11.3527L20.3506 9.61209C20.235 9.35807 20.1975 9.07539 20.243 8.80004C20.2886 8.52468 20.415 8.26909 20.6062 8.06578L20.7803 7.897C20.9649 7.71666 21.0706 7.47063 21.0744 7.21261C21.0781 6.9546 20.9797 6.70557 20.8005 6.51991L19.7032 5.38905C19.5228 5.20451 19.2767 5.09879 19.0187 5.09493C18.7606 5.09108 18.5115 5.1894 18.3257 5.36846L18.1708 5.51888C17.9629 5.70361 17.704 5.82111 17.4281 5.85595C17.1521 5.89079 16.8722 5.84132 16.6249 5.71407L14.8744 4.953C14.6129 4.85557 14.3864 4.6824 14.2238 4.45561C14.0612 4.22882 13.9699 3.95871 13.9616 3.67978V3.65247C13.9646 3.39426 13.8653 3.14537 13.6853 2.96015C13.5054 2.77493 13.2595 2.66845 13.0013 2.66398L11.4259 2.6407C11.1677 2.63758 10.9187 2.73678 10.7334 2.91663C10.5481 3.09648 10.4415 3.34235 10.4369 3.60054V3.62785C10.4206 3.90604 10.3212 4.17294 10.1516 4.39408C9.98201 4.61521 9.75003 4.78043 9.4856 4.86839L7.81708 5.52067C7.56412 5.63777 7.28189 5.67642 7.00676 5.63166C6.73164 5.5869 6.47623 5.46076 6.27345 5.26952L6.1933 5.18804C6.01301 5.00329 5.76691 4.89741 5.50879 4.89355C5.25067 4.88969 5.00152 4.98816 4.81578 5.16745L3.68536 6.26518C3.50085 6.44573 3.3952 6.6919 3.39143 6.95002C3.38765 7.20815 3.48607 7.45729 3.66522 7.64316L3.73372 7.71479C3.91894 7.92198 4.03667 8.18065 4.07129 8.45639C4.10592 8.73213 4.0558 9.01187 3.92757 9.25842L3.22155 10.858C3.12116 11.1191 2.94595 11.3446 2.71785 11.5065C2.48975 11.6683 2.21894 11.7592 1.93939 11.7677H1.78626C1.52813 11.7646 1.27925 11.8637 1.09397 12.0435C0.908678 12.2232 0.80204 12.469 0.797329 12.7271L0.774485 14.3034C0.77137 14.5616 0.870605 14.8105 1.05046 14.9957C1.23033 15.1809 1.4762 15.2874 1.73435 15.2919H1.84447C2.12188 15.3079 2.38789 15.4078 2.60721 15.5784C2.82653 15.749 2.98877 15.9823 3.07247 16.2473L3.68358 17.8898C3.79692 18.1456 3.83222 18.4291 3.78507 18.7048C3.73792 18.9805 3.6104 19.2362 3.41853 19.4397L3.3223 19.5333C3.13716 19.7136 3.03102 19.9599 3.02716 20.2183C3.0233 20.4766 3.12203 20.726 3.30169 20.9117L4.39807 22.0426C4.5787 22.227 4.82484 22.3327 5.08296 22.3367C5.34109 22.3406 5.59035 22.2425 5.77652 22.0636L5.8168 22.0247C6.02308 21.8404 6.28127 21.7243 6.55604 21.6922C6.83081 21.6602 7.10876 21.7137 7.35193 21.8456L8.99493 22.5995C9.25525 22.7041 9.47947 22.8822 9.64015 23.1121C9.80084 23.3421 9.89103 23.6139 9.89971 23.8942V23.9412C9.89695 24.1994 9.99644 24.4482 10.1764 24.6333C10.3564 24.8184 10.6023 24.9248 10.8604 24.9293L12.4359 24.9526C12.6914 24.9582 12.9388 24.8625 13.124 24.6864C13.3092 24.5102 13.4172 24.2679 13.4244 24.0124C13.4419 23.7386 13.543 23.4767 13.7142 23.2623C13.8854 23.0479 14.1184 22.8912 14.3815 22.8135L16.1423 22.1657C16.3955 22.0527 16.6764 22.0165 16.9501 22.0617C17.2237 22.1069 17.478 22.2315 17.6814 22.42C17.8621 22.6008 18.1068 22.703 18.3624 22.7041C18.618 22.7053 18.8637 22.6054 19.046 22.4263L20.176 21.329C20.3604 21.1589 20.47 20.9227 20.4811 20.6721C20.4922 20.4214 20.4037 20.1766 20.235 19.9909C20.0604 19.7859 19.9529 19.5324 19.9271 19.2644C19.9012 18.9964 19.9582 18.727 20.0904 18.4924L20.8793 16.7384C20.9807 16.4775 21.1566 16.2522 21.3852 16.0906C21.6137 15.9289 21.8848 15.8382 22.1646 15.8296H22.2398C22.498 15.8327 22.7469 15.7335 22.9321 15.5536C23.1173 15.3738 23.2238 15.1279 23.2283 14.8697L23.2511 13.2943C23.2541 13.0363 23.1548 12.7876 22.9749 12.6026C22.7951 12.4177 22.5493 12.3114 22.2913 12.3072ZM17.3139 16.6999C16.9826 17.2595 16.6965 17.726 16.6777 17.7345C16.6589 17.743 16.4091 17.9807 16.1539 18.227C15.6889 18.6162 15.1827 18.9534 14.6443 19.2325C13.809 19.6494 12.8916 19.8756 11.9582 19.8946C10.7553 19.8769 9.58466 19.5029 8.59433 18.8199C7.60399 18.1369 6.83844 17.1756 6.3945 16.0575C5.95055 14.9394 5.84817 13.7147 6.10026 12.5384C6.35236 11.3621 6.94763 10.2869 7.81079 9.44896C8.67395 8.61098 9.76622 8.04778 10.9495 7.8306C12.1327 7.61342 13.3538 7.75201 14.4583 8.22885C15.5628 8.70568 16.5011 9.49934 17.1545 10.5094C17.8079 11.5196 18.1471 12.7007 18.1291 13.9036C18.074 14.8857 17.7952 15.8421 17.3139 16.6999Z" fill="#171C8F"/>
<path d="M31.9129 6.91051L31.8936 6.90335C31.7682 6.85115 31.6616 6.76214 31.5878 6.64809C31.514 6.53403 31.4766 6.40028 31.4804 6.26449L31.4549 5.35479C31.4426 5.21897 31.4711 5.08257 31.5366 4.96298C31.6021 4.84338 31.7018 4.74601 31.8229 4.68326L31.9303 4.63401C32.0445 4.58062 32.133 4.48426 32.1764 4.36594C32.2198 4.24762 32.2147 4.11692 32.1622 4.00233L31.8394 3.30394C31.7862 3.18971 31.69 3.10117 31.5717 3.05765C31.4535 3.01412 31.3228 3.01913 31.2082 3.07159L31.1124 3.11635C30.9868 3.16802 30.8486 3.1804 30.7158 3.15187C30.583 3.12333 30.4621 3.05523 30.3688 2.95653L29.6852 2.3235C29.5804 2.23645 29.504 2.12013 29.4657 1.98942C29.4274 1.85871 29.429 1.71954 29.4703 1.58973L29.4752 1.5772C29.5184 1.45875 29.513 1.328 29.46 1.21355C29.4071 1.09911 29.311 1.0103 29.1927 0.966553L28.4701 0.700629C28.3518 0.657535 28.2211 0.66306 28.1068 0.715992C27.9924 0.768925 27.9037 0.864961 27.86 0.983119L27.855 0.995654C27.8025 1.1212 27.7136 1.22812 27.5997 1.30259C27.4858 1.37705 27.3522 1.41563 27.2162 1.41335L26.3423 1.44379C26.2067 1.45695 26.0703 1.42924 25.9506 1.36421C25.831 1.29918 25.7335 1.19983 25.6708 1.07893L25.6475 1.02789C25.5942 0.913746 25.4979 0.825308 25.3796 0.781865C25.2614 0.738423 25.1308 0.743498 25.0162 0.795985L24.3179 1.11922C24.2036 1.17244 24.1151 1.26868 24.0716 1.38694C24.028 1.5052 24.033 1.63588 24.0855 1.75046L24.1056 1.79522C24.1574 1.92059 24.1699 2.05876 24.1413 2.19135C24.1126 2.32394 24.0443 2.44468 23.9454 2.53749L23.3634 3.16023C23.275 3.26434 23.1578 3.33999 23.0265 3.37767C22.8952 3.41534 22.7557 3.41336 22.6256 3.37198L22.5557 3.34647C22.4373 3.30321 22.3066 3.3086 22.1922 3.36146C22.0778 3.41431 21.9889 3.51032 21.9451 3.62851L21.6792 4.35108C21.6361 4.46954 21.6416 4.60024 21.6945 4.71465C21.7474 4.82906 21.8435 4.91789 21.9617 4.96173L22.0123 4.98008C22.1373 5.03256 22.2436 5.12168 22.317 5.23572C22.3904 5.34975 22.4276 5.48335 22.4237 5.61893L22.4393 6.47446C22.4502 6.61062 22.4206 6.74696 22.3544 6.8664C22.2881 6.98585 22.1881 7.08311 22.0669 7.146L22.0073 7.1733C21.8928 7.22643 21.804 7.32282 21.7605 7.44133C21.7169 7.55983 21.7221 7.69078 21.775 7.80544L22.0968 8.50339C22.1503 8.61756 22.2466 8.70603 22.3649 8.74954C22.4832 8.79305 22.6139 8.78809 22.7285 8.73573L22.7536 8.72455C22.8784 8.67311 23.0161 8.66141 23.1478 8.69105C23.2795 8.7207 23.3989 8.79023 23.4896 8.89019L24.1249 9.50307C24.2278 9.59338 24.3023 9.7117 24.3391 9.84359C24.3759 9.97548 24.3735 10.1152 24.3322 10.2458L24.3246 10.2677C24.2815 10.3861 24.287 10.5168 24.3399 10.6311C24.3928 10.7454 24.4889 10.8342 24.6071 10.8779L25.3292 11.1434C25.446 11.1874 25.5754 11.1834 25.6893 11.1322C25.8031 11.081 25.892 10.9869 25.9367 10.8703C25.9888 10.7469 26.0778 10.6425 26.1913 10.5713C26.3049 10.5002 26.4377 10.4658 26.5715 10.4728L27.4875 10.4589C27.6224 10.4477 27.7577 10.4765 27.8765 10.5416C27.9953 10.6067 28.0922 10.7053 28.1554 10.8251C28.2093 10.9375 28.3054 11.0241 28.4227 11.066C28.5401 11.1079 28.6693 11.1018 28.7822 11.0489L29.4806 10.7266C29.5929 10.6778 29.6815 10.5868 29.7271 10.4731C29.7727 10.3595 29.7716 10.2324 29.7241 10.1195C29.6768 9.99694 29.6682 9.86275 29.6996 9.73512C29.731 9.60748 29.8008 9.49257 29.8996 9.40592L30.5465 8.72544C30.6355 8.62166 30.7529 8.54633 30.8844 8.50884C31.0158 8.47134 31.1554 8.47334 31.2857 8.51458L31.3201 8.52711C31.4385 8.57049 31.5693 8.56516 31.6838 8.51229C31.7982 8.45943 31.887 8.36333 31.9308 8.24507L32.1963 7.52295C32.218 7.46414 32.2279 7.40162 32.2254 7.33897C32.2229 7.27633 32.208 7.21479 32.1817 7.1579C32.1554 7.101 32.1181 7.04986 32.072 7.00741C32.0258 6.96495 31.9718 6.93203 31.9129 6.91051ZM29.0607 6.72472C28.9211 7.06022 28.7067 7.35942 28.4339 7.5995C28.2499 7.75396 28.0932 7.88199 28.0856 7.88244C28.078 7.88289 27.9625 7.93527 27.8425 7.99078C27.6326 8.06943 27.4148 8.12498 27.1929 8.15643C26.8506 8.19955 26.5031 8.16606 26.1753 8.05838C25.7579 7.90492 25.3954 7.63113 25.1337 7.27164C24.8719 6.91214 24.7226 6.4831 24.7047 6.03876C24.6868 5.59442 24.801 5.15475 25.033 4.77536C25.265 4.39596 25.6043 4.09388 26.008 3.90732C26.4116 3.72076 26.8616 3.65811 27.3009 3.72728C27.7402 3.79645 28.1491 3.99434 28.4759 4.29592C28.8027 4.5975 29.0327 4.98923 29.1369 5.42155C29.2411 5.85388 29.2143 6.30738 29.0607 6.72472Z" fill="#171C8F"/>
</svg>
