<svg width="24" height="24" viewBox="0 0 24 24" fill="none" xmlns="http://www.w3.org/2000/svg">
<path d="M2.63924 23.3594C1.91345 23.3594 1.29191 23.1161 0.774618 22.6294C0.258206 22.142 0 21.5563 0 20.8724V3.46354C0 2.77962 0.258206 2.19394 0.774618 1.70649C1.29191 1.21987 1.91345 0.976562 2.63924 0.976562H17.386C17.7379 0.976562 18.0735 1.03874 18.3929 1.16309C18.7114 1.28744 18.9916 1.4636 19.2335 1.69157L22.9944 5.23551C23.2363 5.46349 23.4233 5.72752 23.5552 6.02762C23.6872 6.32854 23.7532 6.6448 23.7532 6.9764V20.8724C23.7532 21.5563 23.495 22.142 22.9786 22.6294C22.4613 23.1161 21.8397 23.3594 21.1139 23.3594H2.63924ZM11.8766 19.6289C12.9763 19.6289 13.911 19.2662 14.6808 18.5409C15.4506 17.8155 15.8355 16.9347 15.8355 15.8984C15.8355 14.8622 15.4506 13.9814 14.6808 13.256C13.911 12.5307 12.9763 12.168 11.8766 12.168C10.7769 12.168 9.84218 12.5307 9.0724 13.256C8.30262 13.9814 7.91773 14.8622 7.91773 15.8984C7.91773 16.9347 8.30262 17.8155 9.0724 18.5409C9.84218 19.2662 10.7769 19.6289 11.8766 19.6289ZM5.27849 9.68099H14.5158C14.8897 9.68099 15.2034 9.56161 15.4567 9.32286C15.7092 9.08494 15.8355 8.78982 15.8355 8.4375V5.95052C15.8355 5.5982 15.7092 5.30266 15.4567 5.06391C15.2034 4.82599 14.8897 4.70703 14.5158 4.70703H5.27849C4.90459 4.70703 4.59096 4.82599 4.3376 5.06391C4.08511 5.30266 3.95886 5.5982 3.95886 5.95052V8.4375C3.95886 8.78982 4.08511 9.08494 4.3376 9.32286C4.59096 9.56161 4.90459 9.68099 5.27849 9.68099Z" fill="#171C8F"/>
</svg>
