<svg width="20" height="19" viewBox="0 0 20 19" fill="none" xmlns="http://www.w3.org/2000/svg">
<path d="M19.5311 11.4968L18.5671 12.4609L16.5907 10.4846L17.5548 9.52049C17.7573 9.30839 18.0947 9.30839 18.2971 9.52049L19.5311 10.7545C19.7432 10.9569 19.7432 11.2944 19.5311 11.4968ZM10.1797 16.8859L16.0316 11.0437L18.0079 13.02L12.1657 18.8719H10.1797V16.8859ZM2.46719 0.554688H15.9641C16.4755 0.554688 16.9659 0.757829 17.3275 1.11942C17.6891 1.48102 17.8922 1.97144 17.8922 2.48282V6.50297L14.1999 10.1953H10.1797V14.2155L8.41547 15.9797H2.46719C1.95582 15.9797 1.46539 15.7766 1.1038 15.415C0.742204 15.0534 0.539063 14.563 0.539062 14.0516V2.48282C0.539062 1.97144 0.742204 1.48102 1.1038 1.11942C1.46539 0.757829 1.95582 0.554688 2.46719 0.554688ZM2.46719 4.41095V8.2672H8.25158V4.41095H2.46719ZM10.1797 4.41095V8.2672H15.9641V4.41095H10.1797ZM2.46719 10.1953V14.0516H8.25158V10.1953H2.46719Z" fill="#171C8F"/>
</svg>
