<svg width="19" height="19" viewBox="0 0 19 19" fill="none" xmlns="http://www.w3.org/2000/svg">
<path d="M9.4043 18.8242C4.23619 18.8242 0.046875 14.6349 0.046875 9.4668C0.046875 4.29869 4.23619 0.109375 9.4043 0.109375C14.5724 0.109375 18.7617 4.29869 18.7617 9.4668C18.7617 14.6349 14.5724 18.8242 9.4043 18.8242ZM9.4043 16.9527C11.3897 16.9527 13.2938 16.164 14.6977 14.7602C16.1015 13.3563 16.8902 11.4522 16.8902 9.4668C16.8902 7.4814 16.1015 5.57733 14.6977 4.17344C13.2938 2.76955 11.3897 1.98086 9.4043 1.98086C7.4189 1.98086 5.51483 2.76955 4.11094 4.17344C2.70705 5.57733 1.91836 7.4814 1.91836 9.4668C1.91836 11.4522 2.70705 13.3563 4.11094 14.7602C5.51483 16.164 7.4189 16.9527 9.4043 16.9527ZM8.46855 4.78809H10.34V6.65957H8.46855V4.78809ZM8.46855 8.53105H10.34V14.1455H8.46855V8.53105Z" fill="#171C8F"/>
</svg>
