<svg width="20" height="22" viewBox="0 0 20 22" fill="none" xmlns="http://www.w3.org/2000/svg">
<path d="M14.4353 16.4557V11.829C13.9905 11.918 13.5456 12.0069 13.1007 12.0069H12.6558V17.3455H3.75825V11.1172C3.75825 8.62587 5.71571 6.6684 8.20703 6.6684C8.29601 5.51172 8.82986 4.53299 9.54167 3.7322C9.27474 3.3763 8.74089 3.10938 8.20703 3.10938C7.2283 3.10938 6.42752 3.91016 6.42752 4.88889V5.15582C3.75825 5.9566 1.97873 8.35894 1.97873 11.1172V16.4557L0.199219 18.2352V19.125H16.2148V18.2352L14.4353 16.4557ZM6.42752 20.0148C6.42752 20.9935 7.2283 21.7943 8.20703 21.7943C9.18576 21.7943 9.98655 20.9935 9.98655 20.0148H6.42752ZM16.2148 7.11328C16.2148 8.80382 14.7912 10.2274 13.1007 10.2274C11.4102 10.2274 9.98655 8.80382 9.98655 7.11328C9.98655 5.42274 11.4102 3.99913 13.1007 3.99913C14.7912 3.99913 16.2148 5.42274 16.2148 7.11328Z" fill="#171C8F"/>
<circle cx="14.4727" cy="5.97656" r="4.5" fill="#FF0000" stroke="#F5F5F5"/>
</svg>
