<svg width="21" height="21" viewBox="0 0 21 21" fill="none" xmlns="http://www.w3.org/2000/svg">
<path d="M20.4753 9.56567L16.25 13.3928L17.5158 19.0907C17.5827 19.3886 17.5636 19.7003 17.4608 19.987C17.358 20.2736 17.1761 20.5225 16.9377 20.7024C16.6994 20.8823 16.4152 20.9853 16.1208 20.9985C15.8263 21.0118 15.5347 20.9346 15.2823 20.7767L10.4939 17.7625L5.71587 20.7767C5.46345 20.9346 5.17179 21.0118 4.87735 20.9985C4.5829 20.9853 4.29875 20.8823 4.06041 20.7024C3.82208 20.5225 3.64013 20.2736 3.53732 19.987C3.4345 19.7003 3.41539 19.3886 3.48237 19.0907L4.74621 13.3986L0.519984 9.56567C0.296455 9.36559 0.13482 9.10146 0.0553486 8.80642C-0.0241227 8.51137 -0.0178925 8.19855 0.0732578 7.90716C0.164408 7.61578 0.336421 7.35881 0.567725 7.16848C0.79903 6.97816 1.07933 6.86294 1.37347 6.83729L6.94411 6.33653L9.11858 0.95367C9.23214 0.671221 9.42368 0.429956 9.66908 0.260254C9.91448 0.090552 10.2028 0 10.4977 0C10.7925 0 11.0808 0.090552 11.3262 0.260254C11.5716 0.429956 11.7632 0.671221 11.8767 0.95367L14.0578 6.33653L19.6265 6.83729C19.9207 6.86294 20.201 6.97816 20.4323 7.16848C20.6636 7.35881 20.8356 7.61578 20.9267 7.90716C21.0179 8.19855 21.0241 8.51137 20.9447 8.80642C20.8652 9.10146 20.7035 9.36559 20.48 9.56567H20.4753Z" fill="#FFB800"/>
</svg>
