<svg width="16" height="21" viewBox="0 0 16 21" fill="none" xmlns="http://www.w3.org/2000/svg">
<path d="M10.0078 0.117188H2.00781C1.47738 0.117188 0.968672 0.327901 0.593599 0.702974C0.218526 1.07805 0.0078125 1.58675 0.0078125 2.11719V18.1172C0.0078125 19.2172 0.907812 20.1172 2.00781 20.1172H14.0078C15.1078 20.1172 16.0078 19.2172 16.0078 18.1172V6.11719L10.0078 0.117188ZM10.5078 17.0172L8.00781 15.6172L5.50781 17.1172L6.20781 14.3172L4.00781 12.4172L6.90781 12.2172L8.00781 9.51719L9.10781 12.1172L12.0078 12.3172L9.80781 14.2172L10.5078 17.0172ZM9.00781 7.11719V1.61719L14.5078 7.11719H9.00781Z" fill="#171C8F"/>
</svg>
