<svg width="16" height="16" viewBox="0 0 16 16" fill="none" xmlns="http://www.w3.org/2000/svg">
<path d="M11.0226 2.84694C11.5376 3.37674 11.9471 4.00786 12.2275 4.70392C12.508 5.39998 12.6539 6.1472 12.6568 6.90249C12.6596 7.65778 12.5195 8.40619 12.2443 9.10457C11.9692 9.80295 11.5645 10.4375 11.0537 10.9715C10.5428 11.5056 9.93588 11.9287 9.26786 12.2163C8.59985 12.504 7.88398 12.6505 7.16153 12.6475C6.43908 12.6445 5.72434 12.492 5.05855 12.1988C4.39275 11.9055 3.78907 11.4774 3.28231 10.9391C2.26938 9.86309 1.70424 8.41219 1.71 6.90249C1.71577 5.39279 2.29198 3.94665 3.31309 2.87912C4.3342 1.8116 5.71747 1.2092 7.16153 1.20317C8.60558 1.19714 9.99341 1.78797 11.0226 2.84694Z" stroke="#181C89" stroke-width="2" stroke-linecap="round" stroke-linejoin="round"/>
<path d="M10.9834 10.9766L14.4873 14.6898" stroke="#181C89" stroke-width="2" stroke-linecap="round" stroke-linejoin="round"/>
</svg>
