<svg width="3" height="14" viewBox="0 0 3 14" fill="none" xmlns="http://www.w3.org/2000/svg">
<path d="M1.4987 0.515625C0.719531 0.515625 0.0820312 1.15312 0.0820312 1.93229C0.0820312 2.71146 0.719531 3.34896 1.4987 3.34896C2.27786 3.34896 2.91536 2.71146 2.91536 1.93229C2.91536 1.15312 2.27786 0.515625 1.4987 0.515625ZM1.4987 10.4323C0.719531 10.4323 0.0820312 11.0698 0.0820312 11.849C0.0820312 12.6281 0.719531 13.2656 1.4987 13.2656C2.27786 13.2656 2.91536 12.6281 2.91536 11.849C2.91536 11.0698 2.27786 10.4323 1.4987 10.4323ZM1.4987 5.47396C0.719531 5.47396 0.0820312 6.11146 0.0820312 6.89062C0.0820312 7.66979 0.719531 8.30729 1.4987 8.30729C2.27786 8.30729 2.91536 7.66979 2.91536 6.89062C2.91536 6.11146 2.27786 5.47396 1.4987 5.47396Z" fill="#171C8F"/>
</svg>
