<svg width="38" height="39" viewBox="0 0 38 39" fill="none" xmlns="http://www.w3.org/2000/svg">
<path d="M22.8398 3.22643V14.0671C22.8398 14.1457 22.8711 14.2211 22.9268 14.2767C22.9825 14.3323 23.0581 14.3635 23.1368 14.3635H34.0013C34.0306 14.3635 34.0594 14.3548 34.0837 14.3386C34.1081 14.3223 34.1273 14.2992 34.1385 14.2723C34.1498 14.2452 34.1528 14.2155 34.1471 14.1867C34.1415 14.158 34.1275 14.1315 34.1067 14.1108L23.093 3.12122C23.0722 3.10057 23.0457 3.08654 23.0169 3.0809C22.9882 3.07526 22.9583 3.07825 22.9313 3.08951C22.9041 3.10077 22.881 3.11978 22.8647 3.14415C22.8484 3.16852 22.8397 3.19715 22.8398 3.22643Z" fill="#1A278B"/>
<path d="M9.72076 20.5363C12.8748 20.5363 15.4411 23.097 15.4411 26.2442C15.4411 29.3913 12.8748 31.952 9.72076 31.952C6.5667 31.952 4.0004 29.3913 4.0004 26.2442C4.0004 23.097 6.5667 20.5363 9.72076 20.5363ZM9.72076 19.1094C5.77156 19.1094 2.57031 22.3036 2.57031 26.2442C2.57031 30.1847 5.77156 33.3789 9.72076 33.3789C13.6699 33.3789 16.8712 30.1847 16.8712 26.2442C16.8712 22.3036 13.6699 19.1094 9.72076 19.1094ZM13.296 25.5307H10.4358V22.6768H9.00571V25.5307H6.14554V26.9577H9.00571V29.8115H10.4358V26.9577H13.296V25.5307Z" fill="#171C8F"/>
<path fill-rule="evenodd" clip-rule="evenodd" d="M20.4592 2.51562V16.1489C20.4592 16.3061 20.5218 16.4568 20.6332 16.5681C20.7446 16.6792 20.8957 16.7416 21.0533 16.7416H34.7164V34.8205C34.7164 35.0563 34.6226 35.2824 34.4554 35.4493C34.2883 35.616 34.0618 35.7096 33.8254 35.7096H9.4692C9.23288 35.7096 9.00623 35.616 8.83912 35.4493C8.67201 35.2824 8.57812 35.0563 8.57812 34.8205V34.557C8.92197 34.5999 9.27229 34.622 9.62779 34.622C14.2479 34.622 17.9933 30.885 17.9933 26.275C17.9933 21.6649 14.2479 17.9278 9.62779 17.9278C9.27229 17.9278 8.92197 17.9499 8.57812 17.9928V3.40475C8.57812 3.16894 8.67201 2.94279 8.83912 2.77605C9.00623 2.6093 9.23288 2.51562 9.4692 2.51562H20.4592Z" fill="#171C8F"/>
</svg>
