<svg width="40" height="32" viewBox="0 0 40 32" fill="none" xmlns="http://www.w3.org/2000/svg">
<line x1="8.53516" y1="20.2109" x2="8.53516" y2="31.5722" stroke="#1A278B" stroke-width="1.5"/>
<line x1="4.29687" y1="30.8203" x2="12.6449" y2="30.8203" stroke="#1A278B" stroke-width="1.5"/>
<line x1="8.53516" y1="8.53125" x2="8.53516" y2="13.7882" stroke="#1A278B" stroke-width="1.5"/>
<line x1="8.53516" y1="0.304687" x2="8.53516" y2="2.29335" stroke="#1A278B" stroke-width="1.5"/>
<path fill-rule="evenodd" clip-rule="evenodd" d="M36.374 9.93244H39.7539V2.28906H28.7306L36.374 9.93244ZM27.4102 2.28906H21.1173L28.7607 9.93244H34.9598L27.3633 2.33594L27.4102 2.28906ZM13.5041 2.28906H19.7969L19.75 2.33594L27.3465 9.93244H21.1474L13.5041 2.28906ZM12.1836 2.28906H5.89078L13.5342 9.93244H19.7332L12.1367 2.33594L12.1836 2.28906ZM4.52344 2.33594L12.1199 9.93244H0.585938V2.28906H4.57031L4.52344 2.33594Z" fill="#1A278B"/>
<path fill-rule="evenodd" clip-rule="evenodd" d="M36.374 21.4324H39.7539V13.7891H28.7306L36.374 21.4324ZM27.4102 13.7891H21.1173L28.7607 21.4324H34.9598L27.3633 13.8359L27.4102 13.7891ZM13.5041 13.7891H19.7969L19.75 13.8359L27.3465 21.4324H21.1474L13.5041 13.7891ZM12.1836 13.7891H5.89078L13.5342 21.4324H19.7332L12.1367 13.8359L12.1836 13.7891ZM4.52344 13.8359L12.1199 21.4324H0.585938V13.7891H4.57031L4.52344 13.8359Z" fill="#1A278B"/>
<line x1="32.0039" y1="21.4297" x2="32.0039" y2="31.5719" stroke="#1A278B" stroke-width="1.5"/>
<line x1="27.7656" y1="30.8203" x2="36.3125" y2="30.8203" stroke="#1A278B" stroke-width="1.5"/>
<line x1="32.0039" y1="9.58594" x2="32.0039" y2="13.7881" stroke="#1A278B" stroke-width="1.5"/>
<line x1="32.0039" y1="0.304687" x2="32.0039" y2="2.29335" stroke="#1A278B" stroke-width="1.5"/>
</svg>
