<svg width="43" height="48" viewBox="0 0 43 48" fill="none" xmlns="http://www.w3.org/2000/svg">
<path fill-rule="evenodd" clip-rule="evenodd" d="M37.8414 20.5703V13.7121C37.8414 13.2574 37.6602 12.8214 37.3376 12.4999C37.0151 12.1784 36.5776 11.9978 36.1214 11.9978H3.44141V34.2835C3.44141 34.7381 3.62262 35.1742 3.94518 35.4957C4.26775 35.8172 4.70523 35.9978 5.16141 35.9978H18.4453V20.5703H37.8414ZM3.44141 8.5692H21.3535L17.9135 5.14062H5.16141C4.70523 5.14062 4.26775 5.32124 3.94518 5.64273C3.62262 5.96422 3.44141 6.40025 3.44141 6.85491V8.5692Z" fill="#1A278B"/>
<path d="M34.381 28.9358H29.3845V23.9559H21.8898V38.8956H34.381V28.9358ZM33.8639 27.6908L30.6336 24.4713V27.6908H33.8639ZM21.2652 22.7109H30.6336L35.6302 27.6908V39.5181C35.6302 39.6832 35.5644 39.8416 35.4472 39.9583C35.3301 40.075 35.1712 40.1406 35.0056 40.1406H21.2652C21.0995 40.1406 20.9407 40.075 20.8236 39.9583C20.7064 39.8416 20.6406 39.6832 20.6406 39.5181V23.3334C20.6406 23.1683 20.7064 23.01 20.8236 22.8933C20.9407 22.7765 21.0995 22.7109 21.2652 22.7109ZM24.388 31.4258H31.8828V32.6708H24.388V31.4258ZM24.388 27.6908H27.5108V28.9358H24.388V27.6908ZM24.388 35.1607H31.8828V36.4057H24.388V35.1607Z" fill="#1A278B"/>
</svg>
