<svg width="41" height="24" viewBox="0 0 41 24" fill="none" xmlns="http://www.w3.org/2000/svg">
<path fill-rule="evenodd" clip-rule="evenodd" d="M21.0805 18.2353C21.4461 18.2353 21.8036 18.3436 22.1076 18.5468C22.4116 18.7499 22.6486 19.0386 22.7885 19.3765C22.9284 19.7143 22.965 20.086 22.8937 20.4446C22.8224 20.8032 22.6463 21.1327 22.3878 21.3913C22.1292 21.6498 21.7998 21.8258 21.4412 21.8971C21.0826 21.9685 20.7108 21.932 20.373 21.792C20.0352 21.6521 19.7465 21.415 19.5434 21.111C19.3402 20.807 19.2318 20.4497 19.2318 20.084C19.2318 19.5937 19.4265 19.1235 19.7732 18.7768C20.1199 18.4301 20.5902 18.2353 21.0805 18.2353ZM3.64548 17.1721C2.859 17.1721 2.10473 17.4844 1.5486 18.0405C0.992479 18.5966 0.680045 19.351 0.680045 20.1374C0.680045 20.9239 0.992479 21.6783 1.5486 22.2344C2.10473 22.7905 2.859 23.1028 3.64548 23.1028H20.9816C21.7681 23.1028 22.5223 22.7905 23.0784 22.2344C23.6346 21.6783 23.947 20.9239 23.947 20.1374C23.947 19.351 23.6346 18.5966 23.0784 18.0405C22.5223 17.4844 21.7681 17.1721 20.9816 17.1721H17.9501V16.6472H16.0479V15.3306H22.299C22.3924 14.3661 22.4015 13.3953 22.3261 12.4292L28.342 3.92291L36.4799 7.02902L31.1834 13.4352C29.7001 13.365 28.2596 12.9156 26.9996 12.1297L27.032 10.3204L26.5833 10.3077L26.3859 11.6989C26.3645 11.8379 26.3454 11.9753 26.33 12.1115V12.1188C26.0823 14.3401 26.6818 16.243 28.3222 17.7565C29.1755 17.6317 29.9916 17.3234 30.7142 16.8526C31.4368 16.3819 32.0487 15.7599 32.5077 15.0298L33.7532 15.301L34.3418 14.6035L33.947 14.2898L34.4622 13.7198L34.6004 13.8447L37.7413 10.3661L37.6197 10.2559L39.1381 8.57415L39.6553 8.60008L40.6387 6.41726L36.7961 3.89619L36.6181 4.35259L35.7427 4.0282L35.8176 3.83009L31.4242 2.19292L31.3739 2.33126L29.3546 1.57878L29.4551 1.33574L29.1122 1.00007L28.1268 1.85131L28.064 2.46782C27.9837 2.39315 27.8974 2.32536 27.8058 2.26516L27.7519 1.74187L26.7649 0.890625L26.424 1.22708L26.5027 1.41788L25.9352 2.04013L25.7791 1.89901L22.6329 5.37324L22.7817 5.50783L22.125 6.23379L22.044 6.17006L21.0307 7.0781C20.9301 6.83044 20.8243 6.58182 20.7108 6.33294H13.3094L13.3074 9.36127H8.92981V10.3483H1.20294C0.701393 11.9577 0.531614 13.6522 0.703944 15.3291H8.32142V16.6456H6.73492V17.1705L3.64548 17.1721ZM20.9816 17.7886H3.64548C3.02262 17.7886 2.42524 18.0361 1.98481 18.4765C1.54438 18.917 1.29695 19.5142 1.29695 20.1371C1.29695 20.7599 1.54438 21.3573 1.98481 21.7978C2.42524 22.2382 3.02262 22.4855 3.64548 22.4855H20.9816C21.6045 22.4855 22.2018 22.2382 22.6422 21.7978C23.0827 21.3573 23.3301 20.7599 23.3301 20.1371C23.3301 19.5142 23.0827 18.917 22.6422 18.4765C22.2018 18.0361 21.6045 17.7886 20.9816 17.7886ZM2.52552 12.1426H4.84446V12.5242H2.52552V12.1426ZM2.52552 11.3988H4.84446V11.7802H2.52552V11.3988ZM2.52552 12.887H4.84446V13.2683H2.52552V12.887ZM2.52552 13.6307H4.84446V14.0121H2.52552V13.6307ZM33.5992 14.0141L33.1343 13.6404L37.3936 9.00977L38.404 8.53893L38.5662 8.54704L37.2902 9.96036L37.1321 9.81846L33.9912 13.2978L34.133 13.4243L33.6001 14.0141H33.5992ZM35.5854 4.44501L36.454 4.7692L36.287 5.19809L29.0056 2.41914L29.1815 1.99104L31.2167 2.74906L31.1356 2.96262L35.5274 4.59939L35.585 4.4462L35.5854 4.44501ZM26.6867 1.87308L26.8841 2.34947L22.8526 6.82398L22.4688 6.51542L23.1112 5.80728L23.2405 5.92405L26.3867 2.4512L26.2651 2.33977L26.6867 1.87308ZM21.0651 12.3688H17.1273L16.5744 11.4115H14.6004L14.6041 7.62079H19.8896C20.5808 9.11398 20.9798 10.7256 21.0651 12.3688ZM5.78764 19.8651C5.71239 19.8651 5.64026 19.895 5.58705 19.9482C5.53384 20.0014 5.50392 20.0737 5.50392 20.1489C5.50392 20.2242 5.53384 20.2962 5.58705 20.3494C5.64026 20.4026 5.71239 20.4325 5.78764 20.4325H5.8436C5.66597 20.5184 5.52276 20.6622 5.43737 20.8401C5.35198 21.0179 5.32948 21.2193 5.37354 21.4116C5.41761 21.604 5.52561 21.7758 5.67992 21.8987C5.83423 22.0217 6.0257 22.0885 6.223 22.0885C6.42031 22.0885 6.61178 22.0217 6.76609 21.8987C6.9204 21.7758 7.0284 21.604 7.07246 21.4116C7.11652 21.2193 7.09402 21.0179 7.00864 20.8401C6.92325 20.6622 6.77999 20.5184 6.60236 20.4325H8.27194C8.09392 20.5183 7.95029 20.662 7.86458 20.8401C7.77886 21.0181 7.75617 21.22 7.80015 21.4126C7.84414 21.6053 7.95219 21.7773 8.10668 21.9005C8.26117 22.0237 8.45296 22.0907 8.65055 22.0907C8.84815 22.0907 9.03989 22.0237 9.19438 21.9005C9.34887 21.7773 9.45692 21.6053 9.5009 21.4126C9.54489 21.22 9.5222 21.0181 9.43648 20.8401C9.35077 20.662 9.20714 20.5183 9.02912 20.4325H10.6983C10.5207 20.5187 10.3775 20.6626 10.2922 20.8406C10.2069 21.0187 10.1846 21.2202 10.2287 21.4126C10.2729 21.605 10.3811 21.7767 10.5355 21.8997C10.6899 22.0227 10.8815 22.0897 11.0789 22.0897C11.2763 22.0897 11.4679 22.0227 11.6223 21.8997C11.7767 21.7767 11.8849 21.605 11.929 21.4126C11.9732 21.2202 11.9509 21.0187 11.8656 20.8406C11.7803 20.6626 11.6371 20.5187 11.4595 20.4325H13.127C12.9494 20.5184 12.8062 20.6622 12.7208 20.8401C12.6354 21.0179 12.6129 21.2193 12.657 21.4116C12.701 21.604 12.8091 21.7758 12.9634 21.8987C13.1177 22.0217 13.3091 22.0885 13.5064 22.0885C13.7037 22.0885 13.8952 22.0217 14.0495 21.8987C14.2038 21.7758 14.3118 21.604 14.3559 21.4116C14.4 21.2193 14.3775 21.0179 14.2921 20.8401C14.2067 20.6622 14.0634 20.5184 13.8858 20.4325H15.555C15.377 20.5183 15.2334 20.662 15.1478 20.8401C15.0621 21.0181 15.0394 21.22 15.0834 21.4126C15.1274 21.6052 15.2355 21.7771 15.39 21.9003C15.5445 22.0235 15.7362 22.0905 15.9338 22.0905C16.1314 22.0905 16.3231 22.0235 16.4776 21.9003C16.6321 21.7771 16.7401 21.6052 16.7841 21.4126C16.8281 21.22 16.8054 21.0181 16.7198 20.8401C16.6341 20.662 16.4905 20.5183 16.3126 20.4325H17.9817C17.8041 20.5186 17.6608 20.6624 17.5755 20.8405C17.4902 21.0185 17.4678 21.2202 17.5119 21.4126C17.5561 21.605 17.6643 21.7769 17.8187 21.8999C17.9731 22.0229 18.1647 22.0899 18.3621 22.0899C18.5596 22.0899 18.7511 22.0229 18.9056 21.8999C19.06 21.7769 19.1681 21.605 19.2123 21.4126C19.2565 21.2202 19.234 21.0185 19.1487 20.8405C19.0634 20.6624 18.9202 20.5186 18.7425 20.4325H18.9221C18.9973 20.4325 19.0695 20.4026 19.1227 20.3494C19.1759 20.2962 19.2058 20.2242 19.2058 20.1489C19.2058 20.0737 19.1759 20.0014 19.1227 19.9482C19.0695 19.895 18.9973 19.8651 18.9221 19.8651H18.6242C18.8228 19.8025 18.9925 19.6709 19.1025 19.494C19.2125 19.3172 19.2555 19.1069 19.2239 18.9011C19.1922 18.6952 19.0879 18.5074 18.9298 18.3718C18.7717 18.2362 18.5704 18.1616 18.3621 18.1616C18.1539 18.1616 17.9525 18.2362 17.7944 18.3718C17.6364 18.5074 17.5321 18.6952 17.5004 18.9011C17.4687 19.1069 17.5118 19.3172 17.6218 19.494C17.7318 19.6709 17.9015 19.8025 18.1001 19.8651H16.195C16.3936 19.8029 16.5634 19.6716 16.6735 19.495C16.7837 19.3184 16.8269 19.1084 16.7954 18.9026C16.764 18.6969 16.6599 18.5092 16.502 18.3736C16.3441 18.238 16.1429 18.1636 15.9348 18.1636C15.7267 18.1636 15.5255 18.238 15.3676 18.3736C15.2097 18.5092 15.1056 18.6969 15.0741 18.9026C15.0427 19.1084 15.0859 19.3184 15.1961 19.495C15.3062 19.6716 15.476 19.8029 15.6746 19.8651H13.7695C13.9682 19.8027 14.138 19.6714 14.2481 19.4946C14.3582 19.3179 14.4014 19.1075 14.3699 18.9017C14.3383 18.6958 14.2341 18.5081 14.0761 18.3724C13.9181 18.2368 13.7167 18.1622 13.5085 18.1622C13.3002 18.1622 13.0989 18.2368 12.9408 18.3724C12.7828 18.5081 12.6786 18.6958 12.647 18.9017C12.6155 19.1075 12.6587 19.3179 12.7688 19.4946C12.8789 19.6714 13.0487 19.8027 13.2474 19.8651H11.3424C11.5411 19.8025 11.7108 19.6707 11.8208 19.4938C11.9309 19.3169 11.9739 19.1064 11.9423 18.9005C11.9106 18.6945 11.8062 18.5067 11.6481 18.371C11.4899 18.2354 11.2884 18.1609 11.0801 18.1609C10.8717 18.1609 10.6703 18.2354 10.5122 18.371C10.354 18.5067 10.2496 18.6945 10.218 18.9005C10.1863 19.1064 10.2293 19.3169 10.3394 19.4938C10.4494 19.6707 10.6191 19.8025 10.8178 19.8651H8.91279C9.11133 19.8027 9.28095 19.6713 9.39096 19.4946C9.50097 19.3179 9.5441 19.1078 9.51253 18.9021C9.48096 18.6963 9.37675 18.5088 9.21882 18.3732C9.06089 18.2377 8.85966 18.163 8.65154 18.163C8.44342 18.163 8.2422 18.2377 8.08426 18.3732C7.92633 18.5088 7.82213 18.6963 7.79056 18.9021C7.75898 19.1078 7.80211 19.3179 7.91213 19.4946C8.02214 19.6713 8.19175 19.8027 8.39029 19.8651H6.48524C6.68354 19.8025 6.8529 19.671 6.96267 19.4944C7.07244 19.3178 7.11536 19.1078 7.08369 18.9022C7.05203 18.6967 6.94787 18.5094 6.79004 18.374C6.6322 18.2386 6.43114 18.1642 6.2232 18.1642C6.01526 18.1642 5.8142 18.2386 5.65637 18.374C5.49854 18.5094 5.39437 18.6967 5.36271 18.9022C5.33105 19.1078 5.37397 19.3178 5.48374 19.4944C5.5935 19.671 5.76286 19.8025 5.96116 19.8651H5.78764ZM6.22216 18.6758C6.29289 18.6755 6.36216 18.6961 6.42112 18.7352C6.48007 18.7743 6.52607 18.8301 6.55333 18.8953C6.58058 18.9606 6.58782 19.0325 6.57416 19.1019C6.5605 19.1713 6.52654 19.2351 6.47658 19.2852C6.42663 19.3353 6.36293 19.3694 6.29356 19.3832C6.22419 19.397 6.15227 19.3899 6.08694 19.3628C6.0216 19.3357 5.96584 19.2899 5.92662 19.231C5.88741 19.1721 5.86654 19.1028 5.8667 19.0321C5.86681 18.9378 5.90429 18.8473 5.97091 18.7805C6.03753 18.7138 6.12784 18.6762 6.22216 18.6758ZM18.3623 18.6758C18.433 18.6759 18.502 18.6969 18.5607 18.7362C18.6194 18.7755 18.6651 18.8314 18.692 18.8967C18.719 18.962 18.7259 19.0339 18.7121 19.1031C18.6982 19.1724 18.664 19.2359 18.614 19.2858C18.5639 19.3357 18.5003 19.3697 18.431 19.3834C18.3617 19.397 18.2898 19.3898 18.2246 19.3626C18.1594 19.3354 18.1037 19.2896 18.0646 19.2308C18.0254 19.172 18.0047 19.1027 18.0048 19.0321C18.0049 18.9852 18.0142 18.9388 18.0322 18.8955C18.0502 18.8522 18.0765 18.813 18.1097 18.7799C18.1429 18.7468 18.1823 18.7206 18.2257 18.7027C18.269 18.6849 18.3155 18.6757 18.3623 18.6758ZM15.934 18.6758C16.0047 18.6758 16.0737 18.6967 16.1325 18.736C16.1912 18.7753 16.237 18.8312 16.264 18.8965C16.291 18.9618 16.298 19.0336 16.2842 19.1029C16.2703 19.1722 16.2362 19.2359 16.1862 19.2858C16.1362 19.3357 16.0725 19.3695 16.0032 19.3832C15.9338 19.3969 15.862 19.3898 15.7967 19.3626C15.7315 19.3355 15.6758 19.2896 15.6367 19.2308C15.5975 19.172 15.5767 19.1027 15.5769 19.0321C15.5769 18.9852 15.5862 18.939 15.6042 18.8957C15.6221 18.8525 15.6485 18.813 15.6817 18.7799C15.7148 18.7469 15.7541 18.7206 15.7974 18.7027C15.8407 18.6849 15.8872 18.6758 15.934 18.6758ZM13.5056 18.6758C13.5763 18.6755 13.6456 18.6961 13.7046 18.7352C13.7635 18.7743 13.8095 18.8301 13.8368 18.8953C13.864 18.9606 13.8713 19.0325 13.8576 19.1019C13.8439 19.1713 13.81 19.2351 13.76 19.2852C13.7101 19.3353 13.6464 19.3694 13.577 19.3832C13.5076 19.397 13.4357 19.3899 13.3704 19.3628C13.305 19.3357 13.2493 19.2899 13.2101 19.231C13.1709 19.1721 13.15 19.1028 13.1501 19.0321C13.1507 18.9379 13.1883 18.8478 13.2548 18.7811C13.3213 18.7144 13.4114 18.6766 13.5056 18.6758ZM11.0789 18.6758C11.1496 18.6758 11.2186 18.6967 11.2774 18.736C11.3361 18.7753 11.3819 18.8312 11.4089 18.8965C11.4359 18.9618 11.4429 19.0336 11.4291 19.1029C11.4152 19.1722 11.3811 19.2359 11.3311 19.2858C11.2811 19.3357 11.2174 19.3695 11.1481 19.3832C11.0787 19.3969 11.0069 19.3898 10.9417 19.3626C10.8765 19.3355 10.8207 19.2896 10.7816 19.2308C10.7424 19.172 10.7216 19.1027 10.7218 19.0321C10.7219 18.9852 10.7311 18.939 10.7491 18.8957C10.7671 18.8525 10.7934 18.813 10.8266 18.7799C10.8597 18.7469 10.899 18.7206 10.9423 18.7027C10.9856 18.6849 11.0321 18.6758 11.0789 18.6758ZM8.65055 18.6758C8.72122 18.6758 8.79027 18.6967 8.84901 18.736C8.90776 18.7753 8.95353 18.8312 8.98053 18.8965C9.00753 18.9618 9.01456 19.0336 9.00072 19.1029C8.98687 19.1722 8.95277 19.2359 8.90275 19.2858C8.85273 19.3357 8.78905 19.3695 8.71973 19.3832C8.6504 19.3969 8.57854 19.3898 8.5133 19.3626C8.44806 19.3355 8.39237 19.2896 8.35323 19.2308C8.31409 19.172 8.29325 19.1027 8.29341 19.0321C8.29347 18.9852 8.30275 18.939 8.32072 18.8957C8.3387 18.8525 8.36505 18.813 8.39821 18.7799C8.43137 18.7469 8.47069 18.7206 8.51399 18.7027C8.55729 18.6849 8.60371 18.6758 8.65055 18.6758ZM6.22216 20.8587C6.29286 20.8583 6.36208 20.879 6.42102 20.918C6.47996 20.9571 6.52595 21.0127 6.55323 21.0779C6.5805 21.1432 6.58785 21.215 6.57426 21.2844C6.56066 21.3538 6.52676 21.4175 6.47688 21.4676C6.42701 21.5178 6.36337 21.5519 6.29406 21.5658C6.22474 21.5797 6.15288 21.5728 6.08753 21.5458C6.02218 21.5188 5.96633 21.473 5.92702 21.4142C5.88771 21.3555 5.8667 21.2864 5.8667 21.2157C5.8666 21.1212 5.90397 21.0305 5.97061 20.9636C6.03725 20.8966 6.1277 20.859 6.22216 20.8587ZM18.3623 20.8587C18.4329 20.8587 18.5019 20.8797 18.5606 20.919C18.6193 20.9583 18.665 21.0141 18.692 21.0793C18.7189 21.1446 18.7259 21.2163 18.7121 21.2856C18.6983 21.3548 18.6642 21.4183 18.6143 21.4682C18.5643 21.5181 18.5007 21.5523 18.4315 21.566C18.3622 21.5798 18.2904 21.5727 18.2252 21.5456C18.16 21.5186 18.1042 21.4727 18.065 21.414C18.0257 21.3553 18.0048 21.2863 18.0048 21.2157C18.0048 21.1688 18.014 21.1223 18.032 21.0789C18.0499 21.0356 18.0762 20.9961 18.1094 20.963C18.1427 20.9298 18.1821 20.9035 18.2255 20.8856C18.2689 20.8677 18.3154 20.8586 18.3623 20.8587ZM15.934 20.8587C16.0046 20.8587 16.0736 20.8796 16.1324 20.9188C16.1911 20.9581 16.2368 21.0137 16.2639 21.0789C16.2909 21.1442 16.298 21.2161 16.2842 21.2854C16.2704 21.3546 16.2364 21.4183 16.1865 21.4682C16.1365 21.5182 16.0729 21.552 16.0037 21.5658C15.9344 21.5796 15.8626 21.5727 15.7973 21.5456C15.7321 21.5186 15.6763 21.4727 15.6371 21.414C15.5978 21.3553 15.5769 21.2863 15.5769 21.2157C15.5768 21.1688 15.586 21.1223 15.604 21.0789C15.6219 21.0356 15.6482 20.9961 15.6814 20.963C15.7145 20.9298 15.7539 20.9035 15.7972 20.8856C15.8406 20.8676 15.8871 20.8586 15.934 20.8587ZM13.5056 20.8587C13.5763 20.8583 13.6455 20.879 13.7045 20.918C13.7634 20.9571 13.8094 21.0127 13.8367 21.0779C13.8639 21.1432 13.8713 21.215 13.8577 21.2844C13.8441 21.3538 13.8102 21.4175 13.7603 21.4676C13.7104 21.5178 13.6468 21.5519 13.5775 21.5658C13.5082 21.5797 13.4363 21.5728 13.371 21.5458C13.3056 21.5188 13.2498 21.473 13.2105 21.4142C13.1711 21.3555 13.1501 21.2864 13.1501 21.2157C13.1505 21.1214 13.1879 21.031 13.2545 20.9641C13.321 20.8973 13.4113 20.8594 13.5056 20.8587ZM11.0789 20.8587C11.1495 20.8587 11.2185 20.8796 11.2773 20.9188C11.336 20.9581 11.3818 21.0137 11.4088 21.0789C11.4359 21.1442 11.4429 21.2161 11.4291 21.2854C11.4153 21.3546 11.3813 21.4183 11.3314 21.4682C11.2814 21.5182 11.2178 21.552 11.1486 21.5658C11.0793 21.5796 11.0075 21.5727 10.9422 21.5456C10.877 21.5186 10.8212 21.4727 10.782 21.414C10.7427 21.3553 10.7218 21.2863 10.7218 21.2157C10.7217 21.1688 10.7309 21.1223 10.7489 21.0789C10.7668 21.0356 10.7931 20.9961 10.8263 20.963C10.8594 20.9298 10.8988 20.9035 10.9422 20.8856C10.9855 20.8676 11.032 20.8586 11.0789 20.8587ZM8.65055 20.8587C8.72118 20.8587 8.79019 20.8796 8.84892 20.9188C8.90764 20.9581 8.9534 21.0137 8.98043 21.0789C9.00746 21.1442 9.01455 21.2161 9.00077 21.2854C8.98699 21.3546 8.95299 21.4183 8.90305 21.4682C8.8531 21.5182 8.78949 21.552 8.72022 21.5658C8.65095 21.5796 8.57914 21.5727 8.51389 21.5456C8.44864 21.5186 8.39287 21.4727 8.35363 21.414C8.31439 21.3553 8.29341 21.2863 8.29341 21.2157C8.29336 21.1688 8.3026 21.1223 8.32053 21.0789C8.33845 21.0356 8.36474 20.9961 8.39791 20.963C8.43108 20.9298 8.47044 20.9035 8.51379 20.8856C8.55714 20.8676 8.60364 20.8586 8.65055 20.8587ZM3.56399 18.2353C3.92972 18.2349 4.28734 18.3429 4.59162 18.5458C4.89591 18.7487 5.13321 19.0373 5.27345 19.3751C5.41368 19.7128 5.45059 20.0847 5.37948 20.4434C5.30838 20.8022 5.13247 21.1317 4.874 21.3905C4.61553 21.6492 4.28614 21.8256 3.92746 21.8971C3.56879 21.9686 3.19694 21.9321 2.85901 21.7922C2.52108 21.6524 2.23223 21.4153 2.029 21.1112C1.82577 20.8071 1.71728 20.4497 1.71728 20.084C1.71738 19.5941 1.91194 19.1242 2.25818 18.7776C2.60443 18.4309 3.07406 18.2359 3.56399 18.2353ZM3.56399 19.3264C3.71368 19.3261 3.86007 19.3703 3.98466 19.4533C4.10925 19.5362 4.20644 19.6543 4.26392 19.7925C4.32141 19.9307 4.33666 20.0828 4.30766 20.2297C4.27867 20.3765 4.20674 20.5116 4.10104 20.6176C3.99533 20.7236 3.86059 20.7958 3.71381 20.8252C3.56704 20.8546 3.41483 20.8398 3.27647 20.7827C3.1381 20.7255 3.0198 20.6288 2.9365 20.5044C2.85319 20.38 2.8086 20.2337 2.80844 20.084C2.80828 19.9847 2.8277 19.8861 2.86559 19.7943C2.90348 19.7024 2.95911 19.619 3.02927 19.5486C3.09943 19.4783 3.18279 19.4225 3.27454 19.3844C3.36629 19.3462 3.46463 19.3265 3.56399 19.3264ZM21.0797 19.3264C20.93 19.3261 20.7836 19.3703 20.659 19.4533C20.5344 19.5362 20.4372 19.6543 20.3798 19.7925C20.3223 19.9307 20.3071 20.0828 20.3361 20.2297C20.3651 20.3765 20.4369 20.5116 20.5426 20.6176C20.6483 20.7236 20.7831 20.7958 20.9299 20.8252C21.0767 20.8546 21.2288 20.8398 21.3672 20.7827C21.5056 20.7255 21.6239 20.6288 21.7072 20.5044C21.7905 20.38 21.8351 20.2337 21.8352 20.084C21.8354 19.8835 21.7561 19.6911 21.6146 19.549C21.4731 19.407 21.281 19.3269 21.0805 19.3264H21.0797Z" fill="#171C8F"/>
</svg>
