<svg width="33" height="35" viewBox="0 0 33 35" fill="none" xmlns="http://www.w3.org/2000/svg">
<path fill-rule="evenodd" clip-rule="evenodd" d="M28.4926 27.9535C28.0136 28.6135 27.4834 29.2349 26.9069 29.8118C25.1243 31.5945 22.9317 32.9128 20.5212 33.6514C18.1107 34.3899 15.5559 34.5261 13.0805 34.048C10.6052 33.5699 8.28482 32.492 6.32273 30.909C4.36065 29.3259 2.81662 27.2859 1.82602 24.9676C0.835421 22.6492 0.428439 20.1234 0.640676 17.6112C0.852914 15.0991 1.67792 12.6774 3.04343 10.5581C4.40894 8.43882 6.27335 6.68669 8.47322 5.45524C10.6731 4.2238 13.1414 3.55059 15.6618 3.49456L15.5533 11.5713C14.3657 11.6443 13.2136 12.0045 12.1958 12.6209C11.1781 13.2374 10.3252 14.0917 9.7104 15.1104C9.09561 16.1291 8.73736 17.2819 8.66627 18.4696C8.59519 19.6574 8.8134 20.8446 9.30229 21.9293C9.79119 23.0141 10.5361 23.964 11.473 24.6975C12.4099 25.4309 13.5109 25.926 14.6814 26.1402C15.8518 26.3543 17.0568 26.2812 18.1927 25.927C19.3286 25.5728 20.3616 24.9483 21.2029 24.1069C21.2816 24.0291 21.3571 23.9485 21.4317 23.868L28.4926 27.9535ZM17.144 0.929706H17.068L16.9609 8.9991C17.0213 8.9991 17.0827 8.99586 17.144 8.99586C18.6643 8.99334 20.1476 9.46489 21.3873 10.3449L25.9433 3.68538C23.3619 1.88683 20.2902 0.924879 17.144 0.929706ZM26.3793 6.27677L21.8143 12.9477C21.9974 13.0987 22.1735 13.2589 22.3419 13.4264C23.613 14.6981 24.3743 16.3915 24.4815 18.1864C24.5888 19.9813 24.0346 21.7533 22.9239 23.1674L29.9399 27.2282C31.9342 24.2613 32.8357 20.6937 32.4904 17.1356C32.145 13.5775 30.5744 10.2499 28.0468 7.72192C27.5254 7.2017 26.9685 6.71877 26.3793 6.27677Z" fill="#171C8F"/>
</svg>
