<svg width="19" height="5" viewBox="0 0 19 5" fill="none" xmlns="http://www.w3.org/2000/svg">
<path d="M19.0078 2.10026C19.0078 0.945117 18.0627 -4.13124e-08 16.9076 -9.18053e-08C15.7524 -1.42298e-07 14.8073 0.945117 14.8073 2.10026C14.8073 3.2554 15.7524 4.20052 16.9076 4.20052C18.0627 4.20052 19.0078 3.2554 19.0078 2.10026ZM4.30599 2.10026C4.30599 0.945117 3.36087 -6.83949e-07 2.20573 -7.34442e-07C1.05058 -7.84935e-07 0.105469 0.945116 0.105469 2.10026C0.105469 3.2554 1.05058 4.20052 2.20573 4.20052C3.36087 4.20052 4.30599 3.2554 4.30599 2.10026ZM11.6569 2.10026C11.6569 0.945117 10.7118 -3.62631e-07 9.55664 -4.13124e-07C8.4015 -4.63617e-07 7.45638 0.945117 7.45638 2.10026C7.45638 3.2554 8.4015 4.20052 9.55664 4.20052C10.7118 4.20052 11.6569 3.2554 11.6569 2.10026Z" fill="#171C8F"/>
</svg>
