<svg width="44" height="49" viewBox="0 0 44 49" fill="none" xmlns="http://www.w3.org/2000/svg">
<path fill-rule="evenodd" clip-rule="evenodd" d="M37.8961 21.1875V14.3292C37.8961 13.8746 37.7149 13.4385 37.3923 13.1171C37.0698 12.7956 36.6323 12.615 36.1761 12.615H3.49609V34.9007C3.49609 35.3553 3.67731 35.7914 3.99987 36.1129C4.32243 36.4343 4.75992 36.615 5.21609 36.615H18.5V21.1875H37.8961ZM3.49609 9.18638H21.4082L17.9682 5.75781H5.21609C4.75992 5.75781 4.32243 5.93842 3.99987 6.25992C3.67731 6.58141 3.49609 7.01744 3.49609 7.4721V9.18638Z" fill="#1A278B"/>
<path d="M34.4357 29.553H29.4392V24.5731H21.9444V39.5128H34.4357V29.553ZM33.9186 28.308L30.6883 25.0885V28.308H33.9186ZM21.3199 23.3281H30.6883L35.6848 28.308V40.1353C35.6848 40.3004 35.619 40.4588 35.5019 40.5755C35.3848 40.6922 35.2259 40.7578 35.0603 40.7578H21.3199C21.1542 40.7578 20.9954 40.6922 20.8782 40.5755C20.7611 40.4588 20.6953 40.3004 20.6953 40.1353V23.9506C20.6953 23.7855 20.7611 23.6272 20.8782 23.5104C20.9954 23.3937 21.1542 23.3281 21.3199 23.3281ZM24.4427 32.043H31.9375V33.2879H24.4427V32.043ZM24.4427 28.308H27.5655V29.553H24.4427V28.308ZM24.4427 35.7779H31.9375V37.0229H24.4427V35.7779Z" fill="#1A278B"/>
</svg>
